<svg width="554" height="439" viewBox="0 0 554 439" fill="none" xmlns="http://www.w3.org/2000/svg">
<g clip-path="url(#clip0_0_1566)">
<path d="M154.108 11.9315C211.048 -50.5896 538.362 149.144 553.523 285.641C568.683 422.137 227.222 637.62 129.219 545.867C44.2269 466.105 -0.477444 181.061 154.108 11.9315Z" fill="url(#paint0_linear_0_1566)"/>
<path d="M276.463 552.966C194.455 567.284 -33.1851 289.041 4.11831 174.618C41.4217 60.1945 299.442 11.9315 462.084 109.651C636.664 214.767 415.47 528.805 276.463 552.966Z" fill="url(#paint1_linear_0_1566)"/>
<g style="mix-blend-mode:overlay" opacity="0.3">
<path d="M409.86 160.718C501.716 200.33 449.252 411.637 381.987 464.315C311.677 519.498 78.4863 495.158 68.877 288.981C64.4602 195.438 210.51 74.7509 409.86 160.718Z" fill="#231F20"/>
</g>
<g style="mix-blend-mode:overlay" opacity="0.6">
<path d="M409.86 151.292C501.716 190.904 449.252 402.45 381.987 454.889C311.439 510.073 78.2476 485.553 68.6382 279.556C64.4603 186.012 210.51 65.6234 409.86 151.292Z" fill="#231F20"/>
</g>
<path d="M409.86 139.837C501.716 179.45 449.252 391.056 382.225 443.435C311.677 498.618 78.4863 474.099 68.877 268.101C64.4602 174.558 210.51 53.6919 409.86 139.837Z" fill="white"/>
</g>
<defs>
<linearGradient id="paint0_linear_0_1566" x1="30.0815" y1="528.089" x2="559.346" y2="-41.7677" gradientUnits="userSpaceOnUse">
<stop stop-color="#B1B7C2"/>
<stop offset="1" stop-color="white"/>
</linearGradient>
<linearGradient id="paint1_linear_0_1566" x1="453" y1="567.5" x2="115.316" y2="171.657" gradientUnits="userSpaceOnUse">
<stop stop-color="#00A05E"/>
<stop offset="1" stop-color="#003356"/>
</linearGradient>
<clipPath id="clip0_0_1566">
<rect width="554" height="568" fill="white"/>
</clipPath>
</defs>
</svg>
