<svg width="1440" height="566" viewBox="0 0 1440 566" fill="none" xmlns="http://www.w3.org/2000/svg">
<g clip-path="url(#clip0_0_346)">
<path fill-rule="evenodd" clip-rule="evenodd" d="M-164.5 754L1576.29 770.55V17.2841C1365.69 -121.485 958.343 -45.5656 1009.34 275.312C957 522 687 516 467 433C357.406 391.653 70 386.45 -164.5 754Z" fill="#D5EBFA"/>
<path fill-rule="evenodd" clip-rule="evenodd" d="M102.654 899.338H1576.29V225.11C1404.39 100.9 1071.87 168.854 1113.5 456.063C1149.65 705.489 987.128 654.989 774.29 611.787C481.403 552.329 145.68 532.558 102.654 899.328" fill="#003356"/>
<path fill-rule="evenodd" clip-rule="evenodd" d="M427.976 899.338H1576.29V414.902C1459.25 289.918 1151.73 330.555 1187.76 579.117C1224.05 829.459 1064.02 740.985 869.599 707.103C677.592 673.659 451.52 695.074 427.976 899.338Z" fill="#003356"/>
<path fill-rule="evenodd" clip-rule="evenodd" d="M786.481 899.338H1576.29V578.906C1502.46 467.469 1282.04 492.749 1309.05 679.083C1358.66 1021.33 819.076 616.573 786.481 899.338Z" fill="#003356"/>
</g>
<defs>
<clipPath id="clip0_0_346">
<rect width="1805" height="569" fill="white" transform="translate(-229)"/>
</clipPath>
</defs>
</svg>
