<svg width="215" height="27" viewBox="0 0 215 27" fill="none" xmlns="http://www.w3.org/2000/svg">
<g clip-path="url(#clip0_0_1647)">
<path d="M7.93492 13.4181L2.09319 19.0979C2.0385 19.1502 1.99498 19.213 1.96526 19.2825C1.93554 19.3521 1.92024 19.427 1.92029 19.5026V23.516C1.92125 23.665 1.98086 23.8076 2.0862 23.9129C2.19155 24.0183 2.33415 24.0779 2.48313 24.0789H5.94843C6.09368 24.077 6.23291 24.0206 6.33837 23.9207L12.3935 18.0348C12.4986 17.9293 12.5576 17.7864 12.5576 17.6375C12.5576 17.4886 12.4986 17.3457 12.3935 17.2402L8.7148 13.4144C8.60993 13.3133 8.46976 13.2571 8.32411 13.2578C8.17846 13.2585 8.03883 13.316 7.93492 13.4181Z" fill="#00A05E"/>
<path d="M17.2897 13.1716L23.1388 7.48066C23.1928 7.42962 23.2357 7.36799 23.2648 7.29964C23.2939 7.23128 23.3087 7.15766 23.3081 7.08337V3.0589C23.3081 2.91221 23.25 2.77148 23.1467 2.66741C23.0433 2.56334 22.9029 2.50439 22.7563 2.50342H19.2873C19.1494 2.50927 19.0185 2.56556 18.9194 2.6616L12.8533 8.54748C12.7499 8.65094 12.6919 8.79119 12.6919 8.93742C12.6919 9.08364 12.7499 9.22389 12.8533 9.32736L16.5319 13.1642C16.6343 13.2604 16.769 13.3145 16.9094 13.3159C17.0498 13.3172 17.1856 13.2657 17.2897 13.1716Z" fill="#00A05E"/>
<path d="M13.0997 23.4352L22.6643 14.1208C22.7159 14.0654 22.7833 14.0273 22.8574 14.0116C22.9315 13.996 23.0085 14.0035 23.0781 14.0333C23.1477 14.0631 23.2065 14.1136 23.2463 14.178C23.2861 14.2423 23.3051 14.3174 23.3007 14.393V23.7037C23.3007 23.752 23.2912 23.7999 23.2727 23.8445C23.2542 23.8891 23.2271 23.9297 23.193 23.9638C23.1588 23.998 23.1182 24.0251 23.0736 24.0436C23.029 24.0621 22.9811 24.0716 22.9328 24.0716H13.3683C13.293 24.0752 13.2185 24.0556 13.1547 24.0155C13.091 23.9753 13.0411 23.9166 13.0118 23.8472C12.9825 23.7777 12.9752 23.701 12.991 23.6273C13.0067 23.5537 13.0447 23.4866 13.0997 23.4352Z" fill="#F7931E"/>
<path d="M11.7718 3.48195L2.88778 12.1379C2.80743 12.2159 2.70588 12.2686 2.59579 12.2893C2.48571 12.3099 2.37197 12.2978 2.26877 12.2542C2.16557 12.2106 2.07749 12.1377 2.01551 12.0444C1.95354 11.951 1.92042 11.8416 1.92029 11.7295V3.07362C1.92125 2.92269 1.98164 2.77822 2.08836 2.6715C2.19508 2.56477 2.33956 2.50439 2.49048 2.50343H11.3708C11.4844 2.50283 11.5957 2.53621 11.6902 2.59928C11.7848 2.66235 11.8583 2.75224 11.9014 2.85741C11.9445 2.96258 11.9552 3.07822 11.9321 3.18951C11.909 3.30079 11.8532 3.40263 11.7718 3.48195Z" fill="#F7931E"/>
<path d="M23.3265 25.9108H1.91291C1.40557 25.9108 0.919018 25.7092 0.560278 25.3505C0.201538 24.9917 0 24.5052 0 23.9979L0 2.5843C0 2.07696 0.201538 1.59041 0.560278 1.23167C0.919018 0.872925 1.40557 0.671387 1.91291 0.671387H23.3265C23.5775 0.671386 23.8261 0.720892 24.0579 0.817069C24.2898 0.913247 24.5005 1.05421 24.6778 1.23189C24.8551 1.40957 24.9957 1.62047 25.0914 1.85254C25.1871 2.0846 25.2362 2.33326 25.2357 2.5843V23.9979C25.2362 24.2489 25.1871 24.4976 25.0914 24.7296C24.9957 24.9617 24.8551 25.1726 24.6778 25.3503C24.5005 25.5279 24.2898 25.6689 24.0579 25.7651C23.8261 25.8613 23.5775 25.9108 23.3265 25.9108ZM1.91291 1.74556C1.69046 1.74556 1.47713 1.83393 1.31983 1.99122C1.16254 2.14851 1.07417 2.36185 1.07417 2.5843V23.9979C1.07417 24.2203 1.16254 24.4336 1.31983 24.5909C1.39772 24.6688 1.49018 24.7306 1.59194 24.7727C1.6937 24.8149 1.80276 24.8366 1.91291 24.8366H23.3265C23.5483 24.8356 23.7607 24.7468 23.9172 24.5896C24.0737 24.4324 24.1615 24.2197 24.1615 23.9979V2.5843C24.1615 2.36249 24.0737 2.14971 23.9172 1.99252C23.7607 1.83533 23.5483 1.74653 23.3265 1.74556H1.91291Z" fill="#003356"/>
<path d="M33.5238 0.719238V7.18267H39.7959V0.719238H44.0411V17.9685H39.7959V11.1409H33.5238V17.9685H29.2749V0.719238H33.5238Z" fill="#003356"/>
<path d="M59.2855 0.719238V4.39791H51.976V7.48432H57.9612V11.1262H51.976V14.3119H59.6239V17.9906H47.7565V0.719238H59.2855Z" fill="#003356"/>
<path d="M59.9108 17.9685L66.4993 0.719238H70.5753L77.1601 17.9685H72.8671L71.4913 14.3267H65.5833L64.2075 17.9685H59.9108ZM66.812 10.8025H70.2369L68.5263 5.51991L66.812 10.8025Z" fill="#003356"/>
<path d="M78.6794 0.719238H82.9026V14.3009H89.6345V17.9796H78.6794V0.719238Z" fill="#003356"/>
<path d="M87.2213 0.719238H100.796V4.39791H96.1237V17.9685H91.8748V4.38688H87.2213V0.719238Z" fill="#003356"/>
<path d="M106.88 0.719238V7.18267H113.134V0.719238H117.379V17.9685H113.152V11.1409H106.899V17.9685H102.635V0.719238H106.88Z" fill="#003356"/>
<path d="M128.952 0.428711C134.272 0.428711 137.976 4.40904 137.976 9.3311C137.976 14.2532 134.272 18.2592 128.952 18.2592C123.633 18.2592 119.925 14.2752 119.925 9.3311C119.925 4.38696 123.644 0.428711 128.952 0.428711ZM128.952 14.2752C131.73 14.2752 133.609 12.1048 133.609 9.3311C133.609 6.55738 131.73 4.40904 128.952 4.40904C126.175 4.40904 124.299 6.53163 124.299 9.3311C124.299 12.1306 126.178 14.2752 128.952 14.2752Z" fill="#003356"/>
<path d="M144.053 0.719238L151.341 10.7068V0.719238H155.56V17.9685H152.04L144.73 7.81172V17.9685H140.525V0.719238H144.053Z" fill="#003356"/>
<path d="M167.115 0.428711C172.423 0.428711 176.139 4.40904 176.139 9.3311C176.139 14.2532 172.423 18.2592 167.115 18.2592C161.806 18.2592 158.091 14.2752 158.091 9.3311C158.091 4.38696 161.806 0.428711 167.115 0.428711ZM167.115 14.2752C169.888 14.2752 171.772 12.1048 171.772 9.3311C171.772 6.55738 169.888 4.40904 167.115 4.40904C164.341 4.40904 162.461 6.53163 162.461 9.3311C162.461 12.1306 164.341 14.2752 167.115 14.2752Z" fill="#003356"/>
<path d="M178.669 17.9685V0.719238H182.433L187.789 9.01833L193.13 0.719238H196.894V17.9685H192.663V8.22005L188.657 14.4444H186.921L182.915 8.22005V17.9685H178.669Z" fill="#003356"/>
<path d="M208.801 17.9685H204.578V10.4162L198.402 0.719238H203.011L206.69 6.86998L210.369 0.719238H214.978L208.801 10.4162V17.9685Z" fill="#003356"/>
<path d="M30.4373 20.4849L31.4563 24.296L32.5268 20.4849H33.5679L34.642 24.296L35.661 20.4849H36.8382L35.2527 25.8668H34.0976L33.0492 22.1881L32.0044 25.8668H30.842L29.2601 20.4849H30.4373Z" fill="#003356"/>
<path d="M40.9804 20.4849V21.4965H38.6261V22.6516H40.5758V23.6632H38.6261V24.8478H41.0871V25.8594H37.4636V20.4849H40.9804Z" fill="#003356"/>
<path d="M47.1054 20.4849V21.4965H44.8982V22.7877H46.7191V23.792H44.9129V25.8668H43.7504V20.4849H47.1054Z" fill="#003356"/>
<path d="M53.0612 23.1703C53.0663 23.7259 52.9061 24.2705 52.6011 24.735C52.296 25.1994 51.8598 25.5627 51.3479 25.7787C50.8359 25.9947 50.2713 26.0537 49.7258 25.9482C49.1802 25.8426 48.6784 25.5774 48.2839 25.186C47.8894 24.7947 47.6202 24.2949 47.5103 23.7502C47.4005 23.2055 47.455 22.6405 47.667 22.1268C47.8789 21.6132 48.2387 21.1741 48.7007 20.8654C49.1627 20.5566 49.7061 20.3922 50.2617 20.3929C50.6299 20.3839 50.9962 20.4495 51.3384 20.5856C51.6807 20.7217 51.9919 20.9256 52.2533 21.185C52.5148 21.4444 52.7212 21.754 52.86 22.0952C52.9988 22.4363 53.0673 22.802 53.0612 23.1703ZM48.6468 23.1703C48.6605 23.484 48.766 23.7868 48.9501 24.0412C49.1343 24.2955 49.3891 24.4902 49.6829 24.601C49.9767 24.7119 50.2966 24.7341 50.6029 24.6648C50.9092 24.5955 51.1884 24.4379 51.4059 24.2114C51.6235 23.9849 51.7697 23.6996 51.8266 23.3907C51.8834 23.0819 51.8483 22.7632 51.7257 22.4741C51.6031 22.185 51.3983 21.9383 51.1368 21.7645C50.8752 21.5907 50.5684 21.4975 50.2544 21.4965C50.0383 21.4978 49.8248 21.5426 49.6264 21.6281C49.428 21.7136 49.2488 21.8381 49.0995 21.9943C48.9503 22.1504 48.8339 22.335 48.7574 22.537C48.6809 22.7391 48.6458 22.9544 48.6541 23.1703H48.6468Z" fill="#003356"/>
<path d="M58.6748 24.6603C58.4346 25.0586 58.0951 25.3876 57.6894 25.6153C57.2838 25.8429 56.826 25.9613 56.3609 25.9588C55.987 25.9724 55.6141 25.9105 55.2646 25.7768C54.9151 25.643 54.5961 25.4402 54.3267 25.1805C54.0573 24.9207 53.8431 24.6093 53.6967 24.2649C53.5504 23.9205 53.475 23.5501 53.475 23.1759C53.475 22.8017 53.5504 22.4313 53.6967 22.0869C53.8431 21.7425 54.0573 21.4311 54.3267 21.1713C54.5961 20.9116 54.9151 20.7088 55.2646 20.575C55.6141 20.4413 55.987 20.3794 56.3609 20.393C56.8204 20.3752 57.2759 20.4842 57.6776 20.708C58.0792 20.9319 58.4115 21.262 58.638 21.6621L57.7625 22.3574C57.6262 22.0999 57.4223 21.8845 57.1728 21.7341C56.9233 21.5837 56.6375 21.5042 56.3462 21.504C56.1302 21.501 55.916 21.5427 55.7169 21.6265C55.5178 21.7102 55.3382 21.8342 55.1893 21.9907C55.0404 22.1472 54.9255 22.3328 54.8517 22.5358C54.778 22.7388 54.747 22.9548 54.7607 23.1704C54.7488 23.3845 54.7803 23.5989 54.8534 23.8005C54.9266 24.0022 55.0397 24.1869 55.1862 24.3437C55.3326 24.5004 55.5092 24.6259 55.7054 24.7125C55.9016 24.7992 56.1133 24.8452 56.3278 24.8479C56.6286 24.8498 56.9241 24.7692 57.1823 24.6148C57.4404 24.4604 57.6513 24.2382 57.7919 23.9723L58.6748 24.6603Z" fill="#003356"/>
<path d="M59.3333 23.8288V20.4849H60.4958V23.7368C60.4836 23.8819 60.5017 24.0279 60.5489 24.1656C60.596 24.3033 60.6713 24.4298 60.7698 24.5369C60.8683 24.6441 60.988 24.7296 61.1213 24.7881C61.2546 24.8466 61.3986 24.8768 61.5442 24.8768C61.6898 24.8768 61.8338 24.8466 61.9671 24.7881C62.1004 24.7296 62.2201 24.6441 62.3186 24.5369C62.4171 24.4298 62.4924 24.3033 62.5395 24.1656C62.5867 24.0279 62.6048 23.8819 62.5926 23.7368V20.4849H63.7551V23.8288C63.7551 24.4142 63.5225 24.9756 63.1086 25.3895C62.6947 25.8034 62.1333 26.036 61.5479 26.036C60.9625 26.036 60.4011 25.8034 59.9871 25.3895C59.5732 24.9756 59.3407 24.4142 59.3407 23.8288H59.3333Z" fill="#003356"/>
<path d="M67.4374 22.0189C67.3489 21.8471 67.215 21.7028 67.0503 21.6016C66.8856 21.5005 66.6963 21.4463 66.5031 21.445C66.1168 21.445 65.8078 21.6326 65.8078 21.9637C65.8078 22.2948 66.275 22.4713 66.8415 22.6994C67.717 23.0673 68.3976 23.4094 68.3976 24.3622C68.3976 25.2083 67.6618 25.955 66.4626 25.955C66.0656 25.9652 65.6732 25.868 65.3269 25.6737C64.9805 25.4795 64.6929 25.1954 64.4945 24.8514L65.3332 24.1819C65.4439 24.3886 65.6074 24.5622 65.8071 24.685C66.0068 24.8078 66.2356 24.8754 66.47 24.8809C66.9261 24.8809 67.2351 24.6785 67.2351 24.3843C67.2351 23.9759 66.8121 23.8803 66.0653 23.5529C65.3185 23.2255 64.6527 22.8907 64.6527 21.9674C64.6527 21.044 65.4583 20.3671 66.5178 20.3671C66.8744 20.3562 67.2273 20.4417 67.5393 20.6145C67.8514 20.7874 68.111 21.0413 68.2909 21.3493L67.4374 22.0189Z" fill="#003356"/>
<path d="M76.3067 23.1704C76.3125 23.7269 76.1528 24.2726 75.8478 24.7381C75.5428 25.2036 75.1062 25.568 74.5937 25.7848C74.0811 26.0017 73.5157 26.0612 72.9692 25.956C72.4227 25.8507 71.9198 25.5854 71.5245 25.1937C71.1291 24.802 70.8591 24.3016 70.7488 23.7561C70.6386 23.2106 70.6929 22.6446 70.905 22.13C71.1172 21.6155 71.4774 21.1757 71.9401 20.8664C72.4028 20.5571 72.947 20.3923 73.5035 20.393C73.8721 20.3835 74.2387 20.4487 74.5814 20.5846C74.924 20.7205 75.2357 20.9243 75.4976 21.1837C75.7594 21.4432 75.9661 21.753 76.1052 22.0944C76.2442 22.4358 76.3128 22.8018 76.3067 23.1704ZM71.8923 23.1704C71.906 23.4841 72.0114 23.7869 72.1956 24.0413C72.3798 24.2956 72.6346 24.4903 72.9284 24.6011C73.2222 24.712 73.5421 24.7342 73.8484 24.6649C74.1547 24.5956 74.4339 24.438 74.6514 24.2115C74.869 23.985 75.0152 23.6997 75.0721 23.3908C75.1289 23.082 75.0938 22.7633 74.9712 22.4742C74.8486 22.1851 74.6438 21.9383 74.3822 21.7646C74.1207 21.5908 73.8139 21.4976 73.4999 21.4966C73.2835 21.4974 73.0696 21.5418 72.8707 21.6271C72.6719 21.7124 72.4923 21.8369 72.3426 21.9931C72.193 22.1493 72.0763 22.334 71.9995 22.5363C71.9228 22.7386 71.8876 22.9542 71.896 23.1704H71.8923Z" fill="#003356"/>
<path d="M77.1859 20.4849H78.1681L80.6439 23.8582V20.4849H81.8063V25.8668H80.8241L78.3557 22.4566V25.8668H77.1933L77.1859 20.4849Z" fill="#003356"/>
<path d="M84.8706 20.4847H86.9013C87.1465 20.4737 87.3915 20.5125 87.6214 20.5987C87.8513 20.685 88.0613 20.8169 88.2388 20.9866C88.4162 21.1563 88.5575 21.3601 88.654 21.5859C88.7505 21.8117 88.8003 22.0546 88.8003 22.3002C88.8003 22.5457 88.7505 22.7887 88.654 23.0145C88.5575 23.2402 88.4162 23.4441 88.2388 23.6138C88.0613 23.7834 87.8513 23.9154 87.6214 24.0016C87.3915 24.0879 87.1465 24.1266 86.9013 24.1156H86.0184V25.8666H84.8633L84.8706 20.4847ZM86.7431 23.1113C86.8511 23.1109 86.9579 23.0889 87.0574 23.0467C87.1568 23.0044 87.2468 22.9428 87.3222 22.8654C87.3975 22.788 87.4567 22.6964 87.4962 22.5959C87.5357 22.4953 87.5548 22.3879 87.5524 22.2799C87.5539 22.1744 87.534 22.0696 87.4939 21.972C87.4538 21.8744 87.3943 21.7859 87.3189 21.712C87.2436 21.638 87.1541 21.5801 87.0557 21.5418C86.9574 21.5035 86.8523 21.4855 86.7468 21.489H86.011V23.1113H86.7431Z" fill="#003356"/>
<path d="M89.5095 25.8594V20.4848H91.7976C92.0312 20.4685 92.2657 20.5009 92.4861 20.58C92.7065 20.6592 92.9081 20.7833 93.0779 20.9445C93.2478 21.1057 93.3823 21.3005 93.4728 21.5165C93.5634 21.7325 93.608 21.9649 93.6038 22.1991C93.6067 22.5211 93.5143 22.8369 93.3382 23.1065C93.1621 23.3762 92.9103 23.5878 92.6143 23.7147L93.6406 25.8594H92.3788L91.5254 23.9207H90.6719V25.8594H89.5095ZM90.6719 22.9606H91.5989C91.7007 22.9693 91.8031 22.9567 91.8997 22.9236C91.9964 22.8905 92.085 22.8377 92.1601 22.7685C92.2352 22.6993 92.2951 22.6152 92.3359 22.5216C92.3767 22.428 92.3976 22.327 92.3972 22.2249C92.4021 22.1228 92.3848 22.0209 92.3464 21.9261C92.3081 21.8314 92.2497 21.7461 92.1752 21.6762C92.1007 21.6063 92.0119 21.5533 91.915 21.521C91.818 21.4887 91.7152 21.4778 91.6137 21.4891H90.6682L90.6719 22.9606Z" fill="#003356"/>
<path d="M99.7435 23.1703C99.7486 23.7259 99.5885 24.2705 99.2834 24.735C98.9784 25.1994 98.5422 25.5627 98.0302 25.7787C97.5182 25.9947 96.9536 26.0537 96.4081 25.9482C95.8625 25.8426 95.3607 25.5774 94.9662 25.186C94.5718 24.7947 94.3025 24.2949 94.1927 23.7502C94.0828 23.2055 94.1373 22.6405 94.3493 22.1268C94.5612 21.6132 94.9211 21.1741 95.3831 20.8654C95.8451 20.5566 96.3884 20.3922 96.944 20.3929C97.3123 20.3839 97.6785 20.4495 98.0207 20.5856C98.363 20.7217 98.6742 20.9256 98.9357 21.185C99.1971 21.4444 99.4035 21.754 99.5423 22.0952C99.6811 22.4363 99.7496 22.802 99.7435 23.1703ZM95.3291 23.1703C95.3428 23.484 95.4483 23.7868 95.6325 24.0412C95.8167 24.2955 96.0715 24.4902 96.3653 24.601C96.6591 24.7119 96.9789 24.7341 97.2852 24.6648C97.5915 24.5955 97.8707 24.4379 98.0883 24.2114C98.3058 23.9849 98.452 23.6996 98.5089 23.3907C98.5657 23.0819 98.5307 22.7632 98.408 22.4741C98.2854 22.185 98.0806 21.9383 97.8191 21.7645C97.5575 21.5907 97.2507 21.4975 96.9367 21.4965C96.7207 21.4978 96.5071 21.5426 96.3087 21.6281C96.1103 21.7136 95.9312 21.8381 95.7819 21.9943C95.6326 22.1504 95.5162 22.335 95.4397 22.537C95.3632 22.7391 95.3281 22.9544 95.3365 23.1703H95.3291Z" fill="#003356"/>
<path d="M105.361 24.6602C105.12 25.0586 104.78 25.3876 104.373 25.6152C103.967 25.8428 103.509 25.9612 103.043 25.9588C102.669 25.9724 102.296 25.9105 101.947 25.7768C101.597 25.643 101.278 25.4402 101.009 25.1805C100.74 24.9207 100.525 24.6093 100.379 24.2649C100.233 23.9205 100.157 23.5501 100.157 23.1759C100.157 22.8017 100.233 22.4313 100.379 22.0869C100.525 21.7425 100.74 21.4311 101.009 21.1713C101.278 20.9115 101.597 20.7087 101.947 20.575C102.296 20.4413 102.669 20.3794 103.043 20.393C103.503 20.3753 103.959 20.4843 104.361 20.7081C104.764 20.9319 105.097 21.2619 105.324 21.6621L104.474 22.3574C104.337 22.0999 104.132 21.8845 103.882 21.7342C103.632 21.5839 103.346 21.5043 103.054 21.5039C102.838 21.501 102.624 21.5427 102.425 21.6264C102.226 21.7102 102.046 21.8342 101.897 21.9907C101.749 22.1472 101.634 22.3327 101.56 22.5357C101.486 22.7387 101.455 22.9548 101.469 23.1704C101.457 23.3847 101.489 23.5991 101.563 23.8008C101.636 24.0025 101.75 24.1872 101.897 24.3438C102.043 24.5005 102.22 24.6259 102.417 24.7125C102.613 24.7991 102.825 24.8452 103.04 24.8478C103.335 24.8437 103.624 24.7602 103.877 24.6062C104.129 24.4522 104.335 24.2333 104.474 23.9723L105.361 24.6602Z" fill="#003356"/>
<path d="M109.624 20.4849V21.4965H107.252V22.6516H109.201V23.6632H107.252V24.8478H109.713V25.8594H106.089V20.4849H109.624Z" fill="#003356"/>
<path d="M113.071 22.0189C112.983 21.8469 112.849 21.7024 112.685 21.6012C112.52 21.5 112.33 21.446 112.137 21.4451C111.751 21.4451 111.442 21.6327 111.442 21.9638C111.442 22.2948 111.909 22.4714 112.475 22.6995C113.351 23.0674 114.031 23.4095 114.031 24.3622C114.031 25.2083 113.296 25.9551 112.097 25.9551C111.7 25.9652 111.307 25.868 110.961 25.6738C110.614 25.4796 110.327 25.1955 110.128 24.8515L110.967 24.182C111.078 24.3892 111.242 24.5632 111.443 24.686C111.643 24.8088 111.873 24.8761 112.108 24.8809C112.56 24.8809 112.869 24.6786 112.869 24.3843C112.869 23.976 112.446 23.8803 111.699 23.5529C110.952 23.2255 110.287 22.8908 110.287 21.9674C110.287 21.0441 111.096 20.3672 112.152 20.3672C112.508 20.3559 112.861 20.4412 113.174 20.6141C113.486 20.787 113.745 21.0411 113.925 21.3494L113.071 22.0189Z" fill="#003356"/>
<path d="M117.39 22.0189C117.301 21.8469 117.166 21.7024 117.001 21.6013C116.836 21.5001 116.646 21.4461 116.452 21.4451C116.066 21.4451 115.757 21.6327 115.757 21.9638C115.757 22.2948 116.228 22.4714 116.79 22.6995C117.666 23.0674 118.347 23.4095 118.347 24.3622C118.347 25.2083 117.611 25.9551 116.415 25.9551C116.018 25.9659 115.625 25.869 115.277 25.6748C114.93 25.4805 114.642 25.1961 114.443 24.8515L115.282 24.182C115.393 24.389 115.558 24.5627 115.758 24.6855C115.958 24.8083 116.188 24.8757 116.423 24.8809C116.875 24.8809 117.184 24.6786 117.184 24.3843C117.184 23.976 116.761 23.8803 116.014 23.5529C115.267 23.2255 114.602 22.8908 114.602 21.9674C114.602 21.0441 115.411 20.3672 116.467 20.3672C116.823 20.3559 117.176 20.4412 117.489 20.6141C117.801 20.787 118.06 21.0411 118.24 21.3494L117.39 22.0189Z" fill="#003356"/>
<path d="M119.343 25.933C119.235 25.8965 119.139 25.831 119.066 25.7437C118.993 25.6563 118.945 25.5504 118.928 25.4377C118.91 25.3249 118.925 25.2096 118.968 25.1043C119.012 24.9991 119.084 24.9079 119.177 24.8409C119.269 24.7738 119.378 24.7335 119.492 24.7242C119.605 24.715 119.719 24.7372 119.821 24.7884C119.923 24.8396 120.009 24.9179 120.07 25.0147C120.13 25.1114 120.163 25.2229 120.164 25.337C120.162 25.4307 120.142 25.5233 120.105 25.6092L119.516 26.9152H119.001L119.343 25.933Z" fill="#003356"/>
<path d="M123.011 20.4849L124.24 22.5008L125.472 20.4922H126.756L124.828 23.4977V25.8741H123.659V23.4903L121.727 20.4849H123.011Z" fill="#003356"/>
<path d="M132.256 23.1703C132.261 23.7259 132.101 24.2705 131.795 24.735C131.49 25.1994 131.054 25.5627 130.542 25.7787C130.03 25.9947 129.466 26.0537 128.92 25.9482C128.375 25.8426 127.873 25.5774 127.478 25.186C127.084 24.7947 126.815 24.2949 126.705 23.7502C126.595 23.2055 126.649 22.6405 126.861 22.1268C127.073 21.6132 127.433 21.1741 127.895 20.8654C128.357 20.5566 128.9 20.3922 129.456 20.3929C129.824 20.3839 130.191 20.4495 130.533 20.5856C130.875 20.7217 131.186 20.9256 131.448 21.185C131.709 21.4444 131.916 21.754 132.054 22.0952C132.193 22.4363 132.262 22.802 132.256 23.1703ZM127.841 23.1703C127.855 23.484 127.96 23.7868 128.145 24.0412C128.329 24.2955 128.584 24.4902 128.877 24.601C129.171 24.7119 129.491 24.7341 129.797 24.6648C130.104 24.5955 130.383 24.4379 130.6 24.2114C130.818 23.9849 130.964 23.6996 131.021 23.3907C131.078 23.0819 131.043 22.7632 130.92 22.4741C130.798 22.185 130.593 21.9383 130.331 21.7645C130.07 21.5907 129.763 21.4975 129.449 21.4965C129.233 21.4973 129.019 21.5417 128.82 21.627C128.622 21.7124 128.442 21.8369 128.293 21.9932C128.143 22.1494 128.027 22.3342 127.951 22.5365C127.874 22.7387 127.84 22.9543 127.849 23.1703H127.841Z" fill="#003356"/>
<path d="M133.069 23.8288V20.4849H134.231V23.7368C134.223 23.88 134.243 24.0233 134.292 24.1581C134.341 24.2929 134.417 24.4163 134.516 24.5206C134.614 24.625 134.733 24.7081 134.864 24.765C134.996 24.8218 135.138 24.8511 135.281 24.8511C135.425 24.8511 135.567 24.8218 135.698 24.765C135.83 24.7081 135.949 24.625 136.047 24.5206C136.145 24.4163 136.221 24.2929 136.27 24.1581C136.319 24.0233 136.34 23.88 136.332 23.7368V20.4849H137.494V23.8288C137.494 24.4142 137.261 24.9756 136.848 25.3895C136.434 25.8034 135.872 26.036 135.287 26.036C134.701 26.036 134.14 25.8034 133.726 25.3895C133.312 24.9756 133.08 24.4142 133.08 23.8288H133.069Z" fill="#003356"/>
<path d="M143.836 20.4849V21.4965H141.629V22.7877H143.468V23.792H141.666V25.8668H140.489V20.4849H143.836Z" fill="#003356"/>
<path d="M149.803 23.1703C149.809 23.727 149.649 24.2728 149.344 24.7384C149.039 25.204 148.602 25.5683 148.089 25.7851C147.576 26.0018 147.011 26.0612 146.464 25.9556C145.917 25.8501 145.415 25.5844 145.019 25.1923C144.624 24.8002 144.354 24.2995 144.245 23.7537C144.135 23.208 144.19 22.6419 144.402 22.1274C144.615 21.6129 144.976 21.1733 145.439 20.8645C145.902 20.5556 146.447 20.3915 147.003 20.3929C147.372 20.3839 147.738 20.4495 148.08 20.5856C148.422 20.7217 148.734 20.9256 148.995 21.185C149.257 21.4444 149.463 21.754 149.602 22.0952C149.741 22.4363 149.809 22.802 149.803 23.1703ZM145.388 23.1703C145.402 23.4839 145.508 23.7865 145.692 24.0408C145.876 24.295 146.13 24.4897 146.424 24.6007C146.717 24.7117 147.037 24.734 147.343 24.6651C147.649 24.5961 147.929 24.4388 148.146 24.2127C148.364 23.9866 148.511 23.7016 148.568 23.393C148.625 23.0844 148.591 22.7658 148.469 22.4766C148.346 22.1874 148.142 21.9405 147.881 21.7662C147.62 21.592 147.314 21.4982 147 21.4965C146.783 21.4968 146.569 21.5409 146.369 21.6259C146.17 21.711 145.99 21.8354 145.84 21.9916C145.69 22.1479 145.573 22.3328 145.496 22.5353C145.419 22.7379 145.384 22.9538 145.392 23.1703H145.388Z" fill="#003356"/>
<path d="M155.417 24.6602C155.175 25.0586 154.835 25.3876 154.429 25.6152C154.023 25.8428 153.565 25.9612 153.099 25.9588C152.725 25.9724 152.352 25.9105 152.003 25.7768C151.653 25.643 151.334 25.4402 151.065 25.1805C150.795 24.9207 150.581 24.6093 150.435 24.2649C150.288 23.9205 150.213 23.5501 150.213 23.1759C150.213 22.8017 150.288 22.4313 150.435 22.0869C150.581 21.7425 150.795 21.4311 151.065 21.1713C151.334 20.9115 151.653 20.7087 152.003 20.575C152.352 20.4413 152.725 20.3794 153.099 20.393C153.559 20.3753 154.015 20.4843 154.417 20.7081C154.819 20.9319 155.152 21.2619 155.38 21.6621L154.504 22.3574C154.367 22.0999 154.162 21.8845 153.912 21.7342C153.662 21.5839 153.376 21.5043 153.084 21.5039C152.868 21.5015 152.654 21.5436 152.456 21.6275C152.257 21.7115 152.077 21.8355 151.929 21.9919C151.78 22.1482 151.665 22.3336 151.591 22.5363C151.517 22.7391 151.486 22.9549 151.499 23.1704C151.487 23.3847 151.519 23.5991 151.593 23.8008C151.666 24.0025 151.78 24.1872 151.927 24.3438C152.073 24.5005 152.25 24.6259 152.447 24.7125C152.643 24.7991 152.855 24.8452 153.07 24.8478C153.37 24.8494 153.666 24.7686 153.924 24.6143C154.182 24.4599 154.393 24.2379 154.534 23.9723L155.417 24.6602Z" fill="#003356"/>
<path d="M156.071 23.8288V20.4849H157.234V23.7368C157.225 23.88 157.246 24.0233 157.295 24.1581C157.344 24.2929 157.42 24.4163 157.518 24.5206C157.617 24.625 157.735 24.7081 157.867 24.765C157.999 24.8218 158.141 24.8511 158.284 24.8511C158.427 24.8511 158.569 24.8218 158.701 24.765C158.833 24.7081 158.951 24.625 159.05 24.5206C159.148 24.4163 159.224 24.2929 159.273 24.1581C159.322 24.0233 159.343 23.88 159.334 23.7368V20.4849H160.497V23.8288C160.497 24.4142 160.264 24.9756 159.85 25.3895C159.436 25.8034 158.875 26.036 158.289 26.036C157.704 26.036 157.143 25.8034 156.729 25.3895C156.315 24.9756 156.082 24.4142 156.082 23.8288H156.071Z" fill="#003356"/>
<path d="M164.179 22.0189C164.09 21.8469 163.955 21.7024 163.79 21.6013C163.625 21.5001 163.435 21.4461 163.241 21.4451C162.855 21.4451 162.546 21.6327 162.546 21.9638C162.546 22.2948 163.017 22.4714 163.58 22.6995C164.459 23.0674 165.136 23.4095 165.136 24.3622C165.136 25.2083 164.4 25.9551 163.204 25.9551C162.807 25.9659 162.414 25.869 162.066 25.6748C161.719 25.4805 161.431 25.1961 161.233 24.8515L162.071 24.182C162.183 24.389 162.347 24.5627 162.547 24.6855C162.747 24.8083 162.977 24.8757 163.212 24.8809C163.664 24.8809 163.973 24.6786 163.973 24.3843C163.973 23.976 163.55 23.8803 162.803 23.5529C162.057 23.2255 161.391 22.8908 161.391 21.9674C161.391 21.0441 162.2 20.3672 163.256 20.3672C163.612 20.3559 163.966 20.4412 164.278 20.6141C164.59 20.787 164.849 21.0411 165.029 21.3494L164.179 22.0189Z" fill="#003356"/>
<path d="M173.045 23.1703C173.05 23.7259 172.89 24.2705 172.585 24.735C172.28 25.1994 171.843 25.5627 171.331 25.7787C170.819 25.9947 170.255 26.0537 169.709 25.9482C169.164 25.8426 168.662 25.5774 168.267 25.186C167.873 24.7947 167.604 24.2949 167.494 23.7502C167.384 23.2055 167.439 22.6405 167.65 22.1268C167.862 21.6132 168.222 21.1741 168.684 20.8654C169.146 20.5566 169.69 20.3922 170.245 20.3929C170.613 20.3839 170.98 20.4495 171.322 20.5856C171.664 20.7217 171.975 20.9256 172.237 21.185C172.498 21.4444 172.705 21.754 172.844 22.0952C172.982 22.4363 173.051 22.802 173.045 23.1703ZM168.63 23.1703C168.644 23.484 168.749 23.7868 168.934 24.0412C169.118 24.2955 169.373 24.4902 169.666 24.601C169.96 24.7119 170.28 24.7341 170.586 24.6648C170.893 24.5955 171.172 24.4379 171.389 24.2114C171.607 23.9849 171.753 23.6996 171.81 23.3907C171.867 23.0819 171.832 22.7632 171.709 22.4741C171.587 22.185 171.382 21.9383 171.12 21.7645C170.859 21.5907 170.552 21.4975 170.238 21.4965C170.022 21.4978 169.808 21.5426 169.61 21.6281C169.412 21.7136 169.232 21.8381 169.083 21.9943C168.934 22.1504 168.817 22.335 168.741 22.537C168.664 22.7391 168.629 22.9544 168.638 23.1703H168.63Z" fill="#003356"/>
<path d="M173.928 20.4849H174.91L177.386 23.8582V20.4849H178.548V25.8668H177.566L175.105 22.4566V25.8668H173.928V20.4849Z" fill="#003356"/>
<path d="M181.609 20.4847H183.639C183.885 20.4737 184.13 20.5125 184.359 20.5987C184.589 20.685 184.799 20.8169 184.977 20.9866C185.154 21.1563 185.296 21.3601 185.392 21.5859C185.489 21.8117 185.538 22.0546 185.538 22.3002C185.538 22.5457 185.489 22.7887 185.392 23.0145C185.296 23.2402 185.154 23.4441 184.977 23.6138C184.799 23.7834 184.589 23.9154 184.359 24.0016C184.13 24.0879 183.885 24.1266 183.639 24.1156H182.756V25.8666H181.601L181.609 20.4847ZM183.481 23.1113C183.59 23.1123 183.698 23.0914 183.799 23.0499C183.9 23.0083 183.991 22.9469 184.067 22.8694C184.144 22.7918 184.204 22.6997 184.244 22.5984C184.284 22.4972 184.304 22.3889 184.301 22.2799C184.303 22.1742 184.282 22.0694 184.242 21.9717C184.201 21.8741 184.141 21.7857 184.066 21.7118C183.99 21.6379 183.9 21.58 183.802 21.5418C183.703 21.5035 183.598 21.4855 183.492 21.489H182.775V23.1113H183.481Z" fill="#003356"/>
<path d="M189.783 20.4849V21.4965H187.414V22.6516H189.36V23.6632H187.414V24.8478H189.875V25.8594H186.251V20.4849H189.783Z" fill="#003356"/>
<path d="M195.83 23.1703C195.836 23.7268 195.677 24.2725 195.372 24.738C195.066 25.2035 194.63 25.5679 194.117 25.7847C193.605 26.0016 193.039 26.0612 192.493 25.9559C191.946 25.8506 191.444 25.5853 191.048 25.1936C190.653 24.8019 190.383 24.3015 190.273 23.756C190.162 23.2105 190.217 22.6445 190.429 22.13C190.641 21.6154 191.001 21.1756 191.464 20.8663C191.927 20.557 192.471 20.3922 193.027 20.3929C193.396 20.3839 193.762 20.4495 194.105 20.5855C194.447 20.7216 194.758 20.9255 195.02 21.1848C195.282 21.4442 195.489 21.7537 195.628 22.0949C195.767 22.4361 195.836 22.8018 195.83 23.1703ZM191.416 23.1703C191.43 23.484 191.535 23.7868 191.719 24.0412C191.904 24.2955 192.158 24.4902 192.452 24.601C192.746 24.7119 193.066 24.7341 193.372 24.6648C193.678 24.5955 193.958 24.4379 194.175 24.2114C194.393 23.9849 194.539 23.6996 194.596 23.3907C194.653 23.0819 194.618 22.7632 194.495 22.4741C194.372 22.185 194.168 21.9383 193.906 21.7645C193.644 21.5907 193.338 21.4975 193.024 21.4965C192.807 21.4973 192.593 21.5417 192.394 21.627C192.196 21.7123 192.016 21.8368 191.866 21.993C191.717 22.1492 191.6 22.3339 191.523 22.5362C191.447 22.7385 191.411 22.9541 191.42 23.1703H191.416Z" fill="#003356"/>
<path d="M196.71 20.4847H198.74C198.986 20.4737 199.23 20.5125 199.46 20.5987C199.69 20.685 199.9 20.8169 200.078 20.9866C200.255 21.1563 200.396 21.3601 200.493 21.5859C200.589 21.8117 200.639 22.0546 200.639 22.3002C200.639 22.5457 200.589 22.7887 200.493 23.0145C200.396 23.2402 200.255 23.4441 200.078 23.6138C199.9 23.7834 199.69 23.9154 199.46 24.0016C199.23 24.0879 198.986 24.1266 198.74 24.1156H197.857V25.8666H196.702L196.71 20.4847ZM198.582 23.1113C198.689 23.1099 198.796 23.0872 198.894 23.0445C198.993 23.0019 199.082 22.9401 199.156 22.8628C199.231 22.7855 199.289 22.6942 199.329 22.5942C199.368 22.4941 199.386 22.3873 199.384 22.2799C199.385 22.1742 199.365 22.0694 199.324 21.9717C199.284 21.8741 199.224 21.7857 199.148 21.7118C199.073 21.6379 198.983 21.58 198.884 21.5418C198.786 21.5035 198.68 21.4855 198.575 21.489H197.839V23.1113H198.582Z" fill="#003356"/>
<path d="M201.352 20.4849H202.515V24.8478H204.689V25.8668H201.352V20.4849Z" fill="#003356"/>
<path d="M208.901 20.4849V21.4965H206.528V22.6516H208.478V23.6632H206.528V24.8478H208.989V25.8594H205.365V20.4849H208.901Z" fill="#003356"/>
</g>
<defs>
<clipPath id="clip0_0_1647">
<rect width="215" height="26.4864" fill="white" transform="translate(0 0.428711)"/>
</clipPath>
</defs>
</svg>
