<svg width="215" height="28" viewBox="0 0 215 28" fill="none" xmlns="http://www.w3.org/2000/svg">
<g clip-path="url(#clip0_0_336)">
<path d="M7.93492 13.7462L2.09319 19.4261C2.0385 19.4783 1.99498 19.5411 1.96526 19.6107C1.93554 19.6802 1.92024 19.7551 1.92029 19.8307V23.8441C1.92125 23.9931 1.98086 24.1357 2.0862 24.2411C2.19155 24.3464 2.33415 24.406 2.48313 24.407H5.94843C6.09368 24.4052 6.23291 24.3487 6.33837 24.2488L12.3935 18.3629C12.4986 18.2574 12.5576 18.1146 12.5576 17.9656C12.5576 17.8167 12.4986 17.6738 12.3935 17.5683L8.7148 13.7425C8.60993 13.6414 8.46976 13.5853 8.32411 13.5859C8.17846 13.5866 8.03883 13.6441 7.93492 13.7462Z" fill="#00A05E"/>
<path d="M17.2897 13.4997L23.1388 7.80879C23.1928 7.75774 23.2357 7.69612 23.2648 7.62776C23.2939 7.55941 23.3087 7.48579 23.3081 7.41149V3.38702C23.3081 3.24034 23.25 3.0996 23.1467 2.99553C23.0433 2.89147 22.9029 2.83251 22.7563 2.83154H19.2873C19.1494 2.83739 19.0185 2.89369 18.9194 2.98973L12.8533 8.8756C12.7499 8.97907 12.6919 9.11931 12.6919 9.26554C12.6919 9.41177 12.7499 9.55202 12.8533 9.65548L16.5319 13.4923C16.6343 13.5885 16.769 13.6426 16.9094 13.644C17.0498 13.6453 17.1856 13.5938 17.2897 13.4997Z" fill="#00A05E"/>
<path d="M13.0997 23.7633L22.6643 14.4489C22.7159 14.3935 22.7833 14.3554 22.8574 14.3397C22.9315 14.3241 23.0085 14.3317 23.0781 14.3614C23.1477 14.3912 23.2065 14.4417 23.2463 14.5061C23.2861 14.5705 23.3051 14.6456 23.3007 14.7211V24.0319C23.3007 24.0802 23.2912 24.128 23.2727 24.1726C23.2542 24.2173 23.2271 24.2578 23.193 24.292C23.1588 24.3261 23.1182 24.3532 23.0736 24.3717C23.029 24.3902 22.9811 24.3997 22.9328 24.3997H13.3683C13.293 24.4033 13.2185 24.3837 13.1547 24.3436C13.091 24.3034 13.0411 24.2447 13.0118 24.1753C12.9825 24.1059 12.9752 24.0291 12.991 23.9555C13.0067 23.8818 13.0447 23.8147 13.0997 23.7633Z" fill="#F7931E"/>
<path d="M11.7718 3.81008L2.88778 12.466C2.80743 12.544 2.70588 12.5967 2.59579 12.6174C2.48571 12.6381 2.37197 12.6259 2.26877 12.5823C2.16557 12.5388 2.07749 12.4658 2.01551 12.3725C1.95354 12.2792 1.92042 12.1697 1.92029 12.0577V3.40175C1.92125 3.25082 1.98164 3.10635 2.08836 2.99962C2.19508 2.8929 2.33956 2.83252 2.49048 2.83155H11.3708C11.4844 2.83095 11.5957 2.86433 11.6902 2.9274C11.7848 2.99048 11.8583 3.08037 11.9014 3.18553C11.9445 3.2907 11.9552 3.40635 11.9321 3.51763C11.909 3.62891 11.8532 3.73075 11.7718 3.81008Z" fill="#F7931E"/>
<path d="M23.3265 26.2389H1.91291C1.40557 26.2389 0.919018 26.0374 0.560278 25.6786C0.201538 25.3199 0 24.8333 0 24.326L0 2.91242C0 2.40509 0.201538 1.91853 0.560278 1.55979C0.919018 1.20105 1.40557 0.999512 1.91291 0.999512H23.3265C23.5775 0.999511 23.8261 1.04902 24.0579 1.14519C24.2898 1.24137 24.5005 1.38233 24.6778 1.56001C24.8551 1.73769 24.9957 1.9486 25.0914 2.18066C25.1871 2.41272 25.2362 2.66139 25.2357 2.91242V24.326C25.2362 24.577 25.1871 24.8257 25.0914 25.0577C24.9957 25.2898 24.8551 25.5007 24.6778 25.6784C24.5005 25.8561 24.2898 25.997 24.0579 26.0932C23.8261 26.1894 23.5775 26.2389 23.3265 26.2389ZM1.91291 2.07368C1.69046 2.07368 1.47713 2.16205 1.31983 2.31934C1.16254 2.47664 1.07417 2.68998 1.07417 2.91242V24.326C1.07417 24.5484 1.16254 24.7618 1.31983 24.9191C1.39772 24.9969 1.49018 25.0587 1.59194 25.1009C1.6937 25.143 1.80276 25.1647 1.91291 25.1647H23.3265C23.5483 25.1637 23.7607 25.0749 23.9172 24.9178C24.0737 24.7606 24.1615 24.5478 24.1615 24.326V2.91242C24.1615 2.69061 24.0737 2.47783 23.9172 2.32064C23.7607 2.16345 23.5483 2.07466 23.3265 2.07368H1.91291Z" fill="#003356"/>
<path d="M33.5238 1.04736V7.51079H39.7959V1.04736H44.0411V18.2967H39.7959V11.469H33.5238V18.2967H29.2749V1.04736H33.5238Z" fill="#003356"/>
<path d="M59.2855 1.04736V4.72604H51.976V7.81244H57.9612V11.4543H51.976V14.6401H59.6239V18.3187H47.7565V1.04736H59.2855Z" fill="#003356"/>
<path d="M59.9108 18.2967L66.4993 1.04736H70.5753L77.1601 18.2967H72.8671L71.4913 14.6548H65.5833L64.2075 18.2967H59.9108ZM66.812 11.1306H70.2369L68.5263 5.84803L66.812 11.1306Z" fill="#003356"/>
<path d="M78.6794 1.04736H82.9026V14.629H89.6345V18.3077H78.6794V1.04736Z" fill="#003356"/>
<path d="M87.2213 1.04736H100.796V4.72604H96.1237V18.2967H91.8748V4.715H87.2213V1.04736Z" fill="#003356"/>
<path d="M106.88 1.04736V7.51079H113.134V1.04736H117.379V18.2967H113.152V11.469H106.899V18.2967H102.635V1.04736H106.88Z" fill="#003356"/>
<path d="M128.952 0.756836C134.272 0.756836 137.976 4.73716 137.976 9.65923C137.976 14.5813 134.272 18.5874 128.952 18.5874C123.633 18.5874 119.925 14.6034 119.925 9.65923C119.925 4.71509 123.644 0.756836 128.952 0.756836ZM128.952 14.6034C131.73 14.6034 133.609 12.4329 133.609 9.65923C133.609 6.88551 131.73 4.73716 128.952 4.73716C126.175 4.73716 124.299 6.85976 124.299 9.65923C124.299 12.4587 126.178 14.6034 128.952 14.6034Z" fill="#003356"/>
<path d="M144.053 1.04736L151.341 11.035V1.04736H155.56V18.2967H152.04L144.73 8.13985V18.2967H140.525V1.04736H144.053Z" fill="#003356"/>
<path d="M167.115 0.756836C172.423 0.756836 176.139 4.73716 176.139 9.65923C176.139 14.5813 172.423 18.5874 167.115 18.5874C161.806 18.5874 158.091 14.6034 158.091 9.65923C158.091 4.71509 161.806 0.756836 167.115 0.756836ZM167.115 14.6034C169.888 14.6034 171.772 12.4329 171.772 9.65923C171.772 6.88551 169.888 4.73716 167.115 4.73716C164.341 4.73716 162.461 6.85976 162.461 9.65923C162.461 12.4587 164.341 14.6034 167.115 14.6034Z" fill="#003356"/>
<path d="M178.669 18.2967V1.04736H182.433L187.789 9.34645L193.13 1.04736H196.894V18.2967H192.663V8.54818L188.657 14.7725H186.921L182.915 8.54818V18.2967H178.669Z" fill="#003356"/>
<path d="M208.801 18.2967H204.578V10.7443L198.402 1.04736H203.011L206.69 7.19811L210.369 1.04736H214.978L208.801 10.7443V18.2967Z" fill="#003356"/>
<path d="M30.4373 20.813L31.4563 24.6241L32.5268 20.813H33.5679L34.642 24.6241L35.661 20.813H36.8382L35.2527 26.1949H34.0976L33.0492 22.5162L32.0044 26.1949H30.842L29.2601 20.813H30.4373Z" fill="#003356"/>
<path d="M40.9804 20.813V21.8246H38.6261V22.9797H40.5758V23.9914H38.6261V25.1759H41.0871V26.1875H37.4636V20.813H40.9804Z" fill="#003356"/>
<path d="M47.1054 20.813V21.8246H44.8982V23.1158H46.7191V24.1201H44.9129V26.1949H43.7504V20.813H47.1054Z" fill="#003356"/>
<path d="M53.0612 23.4984C53.0663 24.0541 52.9061 24.5987 52.6011 25.0631C52.296 25.5275 51.8598 25.8908 51.3479 26.1068C50.8359 26.3228 50.2713 26.3818 49.7258 26.2763C49.1802 26.1708 48.6784 25.9055 48.2839 25.5141C47.8894 25.1228 47.6202 24.623 47.5103 24.0783C47.4005 23.5336 47.455 22.9686 47.667 22.4549C47.8789 21.9413 48.2387 21.5022 48.7007 21.1935C49.1627 20.8848 49.7061 20.7203 50.2617 20.721C50.6299 20.7121 50.9962 20.7776 51.3384 20.9137C51.6807 21.0498 51.9919 21.2537 52.2533 21.5131C52.5148 21.7725 52.7212 22.0821 52.86 22.4233C52.9988 22.7644 53.0673 23.1301 53.0612 23.4984ZM48.6468 23.4984C48.6605 23.8121 48.766 24.115 48.9501 24.3693C49.1343 24.6236 49.3891 24.8183 49.6829 24.9291C49.9767 25.04 50.2966 25.0622 50.6029 24.9929C50.9092 24.9237 51.1884 24.766 51.4059 24.5395C51.6235 24.3131 51.7697 24.0277 51.8266 23.7189C51.8834 23.41 51.8483 23.0913 51.7257 22.8022C51.6031 22.5131 51.3983 22.2664 51.1368 22.0926C50.8752 21.9188 50.5684 21.8256 50.2544 21.8246C50.0383 21.8259 49.8248 21.8707 49.6264 21.9562C49.428 22.0417 49.2488 22.1663 49.0995 22.3224C48.9503 22.4786 48.8339 22.6631 48.7574 22.8652C48.6809 23.0672 48.6458 23.2826 48.6541 23.4984H48.6468Z" fill="#003356"/>
<path d="M58.6748 24.9884C58.4346 25.3867 58.0951 25.7158 57.6894 25.9434C57.2838 26.171 56.826 26.2894 56.3609 26.287C55.987 26.3005 55.6141 26.2386 55.2646 26.1049C54.9151 25.9712 54.5961 25.7684 54.3267 25.5086C54.0573 25.2489 53.8431 24.9375 53.6967 24.593C53.5504 24.2486 53.475 23.8783 53.475 23.504C53.475 23.1298 53.5504 22.7594 53.6967 22.415C53.8431 22.0706 54.0573 21.7592 54.3267 21.4995C54.5961 21.2397 54.9151 21.0369 55.2646 20.9032C55.6141 20.7694 55.987 20.7075 56.3609 20.7211C56.8204 20.7033 57.2759 20.8123 57.6776 21.0362C58.0792 21.26 58.4115 21.5901 58.638 21.9903L57.7625 22.6855C57.6262 22.4281 57.4223 22.2126 57.1728 22.0622C56.9233 21.9119 56.6375 21.8323 56.3462 21.8321C56.1302 21.8291 55.916 21.8708 55.7169 21.9546C55.5178 22.0383 55.3382 22.1624 55.1893 22.3188C55.0404 22.4753 54.9255 22.6609 54.8517 22.8639C54.778 23.0669 54.747 23.283 54.7607 23.4985C54.7488 23.7127 54.7803 23.927 54.8534 24.1287C54.9266 24.3303 55.0397 24.5151 55.1862 24.6718C55.3326 24.8285 55.5092 24.954 55.7054 25.0407C55.9016 25.1273 56.1133 25.1733 56.3278 25.176C56.6286 25.1779 56.9241 25.0973 57.1823 24.9429C57.4404 24.7886 57.6513 24.5664 57.7919 24.3005L58.6748 24.9884Z" fill="#003356"/>
<path d="M59.3333 24.1569V20.813H60.4958V24.0649C60.4836 24.21 60.5017 24.356 60.5489 24.4937C60.596 24.6314 60.6713 24.7579 60.7698 24.865C60.8683 24.9722 60.988 25.0577 61.1213 25.1162C61.2546 25.1747 61.3986 25.2049 61.5442 25.2049C61.6898 25.2049 61.8338 25.1747 61.9671 25.1162C62.1004 25.0577 62.2201 24.9722 62.3186 24.865C62.4171 24.7579 62.4924 24.6314 62.5395 24.4937C62.5867 24.356 62.6048 24.21 62.5926 24.0649V20.813H63.7551V24.1569C63.7551 24.7423 63.5225 25.3037 63.1086 25.7176C62.6947 26.1316 62.1333 26.3641 61.5479 26.3641C60.9625 26.3641 60.4011 26.1316 59.9871 25.7176C59.5732 25.3037 59.3407 24.7423 59.3407 24.1569H59.3333Z" fill="#003356"/>
<path d="M67.4374 22.347C67.3489 22.1752 67.215 22.0309 67.0503 21.9298C66.8856 21.8286 66.6963 21.7744 66.5031 21.7731C66.1168 21.7731 65.8078 21.9607 65.8078 22.2918C65.8078 22.6229 66.275 22.7995 66.8415 23.0275C67.717 23.3954 68.3976 23.7375 68.3976 24.6903C68.3976 25.5364 67.6618 26.2832 66.4626 26.2832C66.0656 26.2933 65.6732 26.1961 65.3269 26.0019C64.9805 25.8076 64.6929 25.5236 64.4945 25.1796L65.3332 24.5101C65.4439 24.7167 65.6074 24.8904 65.8071 25.0132C66.0068 25.136 66.2356 25.2035 66.47 25.209C66.9261 25.209 67.2351 25.0067 67.2351 24.7124C67.2351 24.304 66.8121 24.2084 66.0653 23.881C65.3185 23.5536 64.6527 23.2188 64.6527 22.2955C64.6527 21.3721 65.4583 20.6953 66.5178 20.6953C66.8744 20.6843 67.2273 20.7698 67.5393 20.9427C67.8514 21.1155 68.111 21.3694 68.2909 21.6775L67.4374 22.347Z" fill="#003356"/>
<path d="M76.3067 23.4985C76.3125 24.055 76.1528 24.6007 75.8478 25.0662C75.5428 25.5317 75.1062 25.8961 74.5937 26.1129C74.0811 26.3298 73.5157 26.3894 72.9692 26.2841C72.4227 26.1789 71.9198 25.9135 71.5245 25.5218C71.1291 25.1301 70.8591 24.6297 70.7488 24.0842C70.6386 23.5387 70.6929 22.9727 70.905 22.4582C71.1172 21.9436 71.4774 21.5038 71.9401 21.1945C72.4028 20.8852 72.947 20.7204 73.5035 20.7211C73.8721 20.7116 74.2387 20.7768 74.5814 20.9127C74.924 21.0486 75.2357 21.2524 75.4976 21.5119C75.7594 21.7713 75.9661 22.0811 76.1052 22.4225C76.2442 22.7639 76.3128 23.1299 76.3067 23.4985ZM71.8923 23.4985C71.906 23.8122 72.0114 24.115 72.1956 24.3694C72.3798 24.6237 72.6346 24.8184 72.9284 24.9292C73.2222 25.0401 73.5421 25.0623 73.8484 24.993C74.1547 24.9238 74.4339 24.7661 74.6514 24.5396C74.869 24.3131 75.0152 24.0278 75.0721 23.719C75.1289 23.4101 75.0938 23.0914 74.9712 22.8023C74.8486 22.5132 74.6438 22.2665 74.3822 22.0927C74.1207 21.9189 73.8139 21.8257 73.4999 21.8247C73.2835 21.8255 73.0696 21.8699 72.8707 21.9552C72.6719 22.0405 72.4923 22.165 72.3426 22.3212C72.193 22.4774 72.0763 22.6621 71.9995 22.8644C71.9228 23.0667 71.8876 23.2823 71.896 23.4985H71.8923Z" fill="#003356"/>
<path d="M77.1859 20.813H78.1681L80.6439 24.1863V20.813H81.8063V26.1949H80.8241L78.3557 22.7848V26.1949H77.1933L77.1859 20.813Z" fill="#003356"/>
<path d="M84.8706 20.8129H86.9013C87.1465 20.8018 87.3915 20.8406 87.6214 20.9269C87.8513 21.0131 88.0613 21.1451 88.2388 21.3147C88.4162 21.4844 88.5575 21.6883 88.654 21.914C88.7505 22.1398 88.8003 22.3828 88.8003 22.6283C88.8003 22.8738 88.7505 23.1168 88.654 23.3426C88.5575 23.5683 88.4162 23.7722 88.2388 23.9419C88.0613 24.1115 87.8513 24.2435 87.6214 24.3297C87.3915 24.416 87.1465 24.4548 86.9013 24.4437H86.0184V26.1948H84.8633L84.8706 20.8129ZM86.7431 23.4394C86.8511 23.439 86.9579 23.417 87.0574 23.3748C87.1568 23.3326 87.2468 23.271 87.3222 23.1936C87.3975 23.1161 87.4567 23.0245 87.4962 22.924C87.5357 22.8235 87.5548 22.7161 87.5524 22.6081C87.5539 22.5025 87.534 22.3978 87.4939 22.3001C87.4538 22.2025 87.3943 22.114 87.3189 22.0401C87.2436 21.9661 87.1541 21.9083 87.0557 21.8699C86.9574 21.8316 86.8523 21.8137 86.7468 21.8172H86.011V23.4394H86.7431Z" fill="#003356"/>
<path d="M89.5095 26.1875V20.813H91.7976C92.0312 20.7966 92.2657 20.829 92.4861 20.9081C92.7065 20.9873 92.9081 21.1114 93.0779 21.2726C93.2478 21.4338 93.3823 21.6286 93.4728 21.8446C93.5634 22.0606 93.608 22.2931 93.6038 22.5272C93.6067 22.8493 93.5143 23.165 93.3382 23.4346C93.1621 23.7043 92.9103 23.9159 92.6143 24.0428L93.6406 26.1875H92.3788L91.5254 24.2488H90.6719V26.1875H89.5095ZM90.6719 23.2887H91.5989C91.7007 23.2974 91.8031 23.2848 91.8997 23.2517C91.9964 23.2187 92.085 23.1658 92.1601 23.0966C92.2352 23.0274 92.2951 22.9434 92.3359 22.8498C92.3767 22.7562 92.3976 22.6551 92.3972 22.553C92.4021 22.4509 92.3848 22.349 92.3464 22.2543C92.3081 22.1595 92.2497 22.0743 92.1752 22.0043C92.1007 21.9344 92.0119 21.8814 91.915 21.8491C91.818 21.8168 91.7152 21.8059 91.6137 21.8172H90.6682L90.6719 23.2887Z" fill="#003356"/>
<path d="M99.7435 23.4984C99.7486 24.0541 99.5885 24.5987 99.2834 25.0631C98.9784 25.5275 98.5422 25.8908 98.0302 26.1068C97.5182 26.3228 96.9536 26.3818 96.4081 26.2763C95.8625 26.1708 95.3607 25.9055 94.9662 25.5141C94.5718 25.1228 94.3025 24.623 94.1927 24.0783C94.0828 23.5336 94.1373 22.9686 94.3493 22.4549C94.5612 21.9413 94.9211 21.5022 95.3831 21.1935C95.8451 20.8848 96.3884 20.7203 96.944 20.721C97.3123 20.7121 97.6785 20.7776 98.0207 20.9137C98.363 21.0498 98.6742 21.2537 98.9357 21.5131C99.1971 21.7725 99.4035 22.0821 99.5423 22.4233C99.6811 22.7644 99.7496 23.1301 99.7435 23.4984ZM95.3291 23.4984C95.3428 23.8121 95.4483 24.115 95.6325 24.3693C95.8167 24.6236 96.0715 24.8183 96.3653 24.9291C96.6591 25.04 96.9789 25.0622 97.2852 24.9929C97.5915 24.9237 97.8707 24.766 98.0883 24.5395C98.3058 24.3131 98.452 24.0277 98.5089 23.7189C98.5657 23.41 98.5307 23.0913 98.408 22.8022C98.2854 22.5131 98.0806 22.2664 97.8191 22.0926C97.5575 21.9188 97.2507 21.8256 96.9367 21.8246C96.7207 21.8259 96.5071 21.8707 96.3087 21.9562C96.1103 22.0417 95.9312 22.1663 95.7819 22.3224C95.6326 22.4786 95.5162 22.6631 95.4397 22.8652C95.3632 23.0672 95.3281 23.2826 95.3365 23.4984H95.3291Z" fill="#003356"/>
<path d="M105.361 24.9884C105.12 25.3867 104.78 25.7157 104.373 25.9433C103.967 26.1709 103.509 26.2893 103.043 26.2869C102.669 26.3005 102.296 26.2386 101.947 26.1049C101.597 25.9711 101.278 25.7683 101.009 25.5086C100.74 25.2488 100.525 24.9374 100.379 24.593C100.233 24.2486 100.157 23.8782 100.157 23.504C100.157 23.1298 100.233 22.7594 100.379 22.415C100.525 22.0706 100.74 21.7592 101.009 21.4994C101.278 21.2397 101.597 21.0369 101.947 20.9031C102.296 20.7694 102.669 20.7075 103.043 20.7211C103.503 20.7034 103.959 20.8124 104.361 21.0363C104.764 21.2601 105.097 21.5901 105.324 21.9902L104.474 22.6855C104.337 22.428 104.132 22.2126 103.882 22.0623C103.632 21.912 103.346 21.8324 103.054 21.832C102.838 21.8291 102.624 21.8708 102.425 21.9545C102.226 22.0383 102.046 22.1623 101.897 22.3188C101.749 22.4753 101.634 22.6609 101.56 22.8639C101.486 23.0669 101.455 23.2829 101.469 23.4985C101.457 23.7128 101.489 23.9273 101.563 24.1289C101.636 24.3306 101.75 24.5153 101.897 24.672C102.043 24.8286 102.22 24.9541 102.417 25.0407C102.613 25.1273 102.825 25.1733 103.04 25.176C103.335 25.1718 103.624 25.0883 103.877 24.9343C104.129 24.7803 104.335 24.5614 104.474 24.3004L105.361 24.9884Z" fill="#003356"/>
<path d="M109.624 20.813V21.8246H107.252V22.9797H109.201V23.9914H107.252V25.1759H109.713V26.1875H106.089V20.813H109.624Z" fill="#003356"/>
<path d="M113.071 22.3471C112.983 22.175 112.849 22.0305 112.685 21.9293C112.52 21.8281 112.33 21.7741 112.137 21.7732C111.751 21.7732 111.442 21.9608 111.442 22.2919C111.442 22.623 111.909 22.7995 112.475 23.0276C113.351 23.3955 114.031 23.7376 114.031 24.6904C114.031 25.5365 113.296 26.2832 112.097 26.2832C111.7 26.2933 111.307 26.1962 110.961 26.0019C110.614 25.8077 110.327 25.5236 110.128 25.1796L110.967 24.5101C111.078 24.7173 111.242 24.8913 111.443 25.0141C111.643 25.137 111.873 25.2043 112.108 25.2091C112.56 25.2091 112.869 25.0067 112.869 24.7124C112.869 24.3041 112.446 24.2085 111.699 23.8811C110.952 23.5537 110.287 23.2189 110.287 22.2956C110.287 21.3722 111.096 20.6953 112.152 20.6953C112.508 20.684 112.861 20.7693 113.174 20.9422C113.486 21.1151 113.745 21.3692 113.925 21.6775L113.071 22.3471Z" fill="#003356"/>
<path d="M117.39 22.3471C117.301 22.175 117.166 22.0306 117.001 21.9294C116.836 21.8283 116.646 21.7742 116.452 21.7732C116.066 21.7732 115.757 21.9608 115.757 22.2919C115.757 22.623 116.228 22.7995 116.79 23.0276C117.666 23.3955 118.347 23.7376 118.347 24.6904C118.347 25.5365 117.611 26.2832 116.415 26.2832C116.018 26.294 115.625 26.1972 115.277 26.0029C114.93 25.8086 114.642 25.5242 114.443 25.1796L115.282 24.5101C115.393 24.7171 115.558 24.8909 115.758 25.0136C115.958 25.1364 116.188 25.2039 116.423 25.2091C116.875 25.2091 117.184 25.0067 117.184 24.7124C117.184 24.3041 116.761 24.2085 116.014 23.8811C115.267 23.5537 114.602 23.2189 114.602 22.2956C114.602 21.3722 115.411 20.6953 116.467 20.6953C116.823 20.684 117.176 20.7693 117.489 20.9422C117.801 21.1151 118.06 21.3692 118.24 21.6775L117.39 22.3471Z" fill="#003356"/>
<path d="M119.343 26.2611C119.235 26.2246 119.139 26.1591 119.066 26.0718C118.993 25.9844 118.945 25.8786 118.928 25.7658C118.91 25.653 118.925 25.5377 118.968 25.4325C119.012 25.3272 119.084 25.236 119.177 25.169C119.269 25.102 119.378 25.0616 119.492 25.0523C119.605 25.0431 119.719 25.0653 119.821 25.1165C119.923 25.1677 120.009 25.246 120.07 25.3428C120.13 25.4396 120.163 25.5511 120.164 25.6651C120.162 25.7589 120.142 25.8514 120.105 25.9374L119.516 27.2433H119.001L119.343 26.2611Z" fill="#003356"/>
<path d="M123.011 20.813L124.24 22.8289L125.472 20.8203H126.756L124.828 23.8258V26.2022H123.659V23.8185L121.727 20.813H123.011Z" fill="#003356"/>
<path d="M132.256 23.4984C132.261 24.0541 132.101 24.5987 131.795 25.0631C131.49 25.5275 131.054 25.8908 130.542 26.1068C130.03 26.3228 129.466 26.3818 128.92 26.2763C128.375 26.1708 127.873 25.9055 127.478 25.5141C127.084 25.1228 126.815 24.623 126.705 24.0783C126.595 23.5336 126.649 22.9686 126.861 22.4549C127.073 21.9413 127.433 21.5022 127.895 21.1935C128.357 20.8848 128.9 20.7203 129.456 20.721C129.824 20.7121 130.191 20.7776 130.533 20.9137C130.875 21.0498 131.186 21.2537 131.448 21.5131C131.709 21.7725 131.916 22.0821 132.054 22.4233C132.193 22.7644 132.262 23.1301 132.256 23.4984ZM127.841 23.4984C127.855 23.8121 127.96 24.115 128.145 24.3693C128.329 24.6236 128.584 24.8183 128.877 24.9291C129.171 25.04 129.491 25.0622 129.797 24.9929C130.104 24.9237 130.383 24.766 130.6 24.5395C130.818 24.3131 130.964 24.0277 131.021 23.7189C131.078 23.41 131.043 23.0913 130.92 22.8022C130.798 22.5131 130.593 22.2664 130.331 22.0926C130.07 21.9188 129.763 21.8256 129.449 21.8246C129.233 21.8254 129.019 21.8698 128.82 21.9552C128.622 22.0405 128.442 22.165 128.293 22.3213C128.143 22.4775 128.027 22.6623 127.951 22.8646C127.874 23.0669 127.84 23.2824 127.849 23.4984H127.841Z" fill="#003356"/>
<path d="M133.069 24.1569V20.813H134.231V24.0649C134.223 24.2081 134.243 24.3515 134.292 24.4862C134.341 24.621 134.417 24.7444 134.516 24.8487C134.614 24.9531 134.733 25.0362 134.864 25.0931C134.996 25.1499 135.138 25.1792 135.281 25.1792C135.425 25.1792 135.567 25.1499 135.698 25.0931C135.83 25.0362 135.949 24.9531 136.047 24.8487C136.145 24.7444 136.221 24.621 136.27 24.4862C136.319 24.3515 136.34 24.2081 136.332 24.0649V20.813H137.494V24.1569C137.494 24.7423 137.261 25.3037 136.848 25.7176C136.434 26.1316 135.872 26.3641 135.287 26.3641C134.701 26.3641 134.14 26.1316 133.726 25.7176C133.312 25.3037 133.08 24.7423 133.08 24.1569H133.069Z" fill="#003356"/>
<path d="M143.836 20.813V21.8246H141.629V23.1158H143.468V24.1201H141.666V26.1949H140.489V20.813H143.836Z" fill="#003356"/>
<path d="M149.803 23.4984C149.809 24.0551 149.649 24.6009 149.344 25.0665C149.039 25.5321 148.602 25.8964 148.089 26.1132C147.576 26.3299 147.011 26.3893 146.464 26.2838C145.917 26.1782 145.415 25.9125 145.019 25.5204C144.624 25.1283 144.354 24.6276 144.245 24.0818C144.135 23.5361 144.19 22.97 144.402 22.4555C144.615 21.9411 144.976 21.5014 145.439 21.1926C145.902 20.8837 146.447 20.7196 147.003 20.721C147.372 20.7121 147.738 20.7776 148.08 20.9137C148.422 21.0498 148.734 21.2537 148.995 21.5131C149.257 21.7725 149.463 22.0821 149.602 22.4233C149.741 22.7644 149.809 23.1301 149.803 23.4984ZM145.388 23.4984C145.402 23.812 145.508 24.1147 145.692 24.3689C145.876 24.6232 146.13 24.8178 146.424 24.9288C146.717 25.0398 147.037 25.0622 147.343 24.9932C147.649 24.9242 147.929 24.767 148.146 24.5408C148.364 24.3147 148.511 24.0297 148.568 23.7211C148.625 23.4125 148.591 23.0939 148.469 22.8047C148.346 22.5156 148.142 22.2686 147.881 22.0944C147.62 21.9202 147.314 21.8264 147 21.8246C146.783 21.825 146.569 21.869 146.369 21.9541C146.17 22.0391 145.99 22.1635 145.84 22.3198C145.69 22.476 145.573 22.6609 145.496 22.8635C145.419 23.066 145.384 23.2819 145.392 23.4984H145.388Z" fill="#003356"/>
<path d="M155.417 24.9884C155.175 25.3867 154.835 25.7157 154.429 25.9433C154.023 26.1709 153.565 26.2893 153.099 26.2869C152.725 26.3005 152.352 26.2386 152.003 26.1049C151.653 25.9711 151.334 25.7683 151.065 25.5086C150.795 25.2488 150.581 24.9374 150.435 24.593C150.288 24.2486 150.213 23.8782 150.213 23.504C150.213 23.1298 150.288 22.7594 150.435 22.415C150.581 22.0706 150.795 21.7592 151.065 21.4994C151.334 21.2397 151.653 21.0369 152.003 20.9031C152.352 20.7694 152.725 20.7075 153.099 20.7211C153.559 20.7034 154.015 20.8124 154.417 21.0363C154.819 21.2601 155.152 21.5901 155.38 21.9902L154.504 22.6855C154.367 22.428 154.162 22.2126 153.912 22.0623C153.662 21.912 153.376 21.8324 153.084 21.832C152.868 21.8296 152.654 21.8717 152.456 21.9557C152.257 22.0396 152.077 22.1636 151.929 22.32C151.78 22.4764 151.665 22.6617 151.591 22.8645C151.517 23.0672 151.486 23.2831 151.499 23.4985C151.487 23.7128 151.519 23.9273 151.593 24.1289C151.666 24.3306 151.78 24.5153 151.927 24.672C152.073 24.8286 152.25 24.9541 152.447 25.0407C152.643 25.1273 152.855 25.1733 153.07 25.176C153.37 25.1775 153.666 25.0967 153.924 24.9424C154.182 24.7881 154.393 24.5661 154.534 24.3004L155.417 24.9884Z" fill="#003356"/>
<path d="M156.071 24.1569V20.813H157.234V24.0649C157.225 24.2081 157.246 24.3515 157.295 24.4862C157.344 24.621 157.42 24.7444 157.518 24.8487C157.617 24.9531 157.735 25.0362 157.867 25.0931C157.999 25.1499 158.141 25.1792 158.284 25.1792C158.427 25.1792 158.569 25.1499 158.701 25.0931C158.833 25.0362 158.951 24.9531 159.05 24.8487C159.148 24.7444 159.224 24.621 159.273 24.4862C159.322 24.3515 159.343 24.2081 159.334 24.0649V20.813H160.497V24.1569C160.497 24.7423 160.264 25.3037 159.85 25.7176C159.436 26.1316 158.875 26.3641 158.289 26.3641C157.704 26.3641 157.143 26.1316 156.729 25.7176C156.315 25.3037 156.082 24.7423 156.082 24.1569H156.071Z" fill="#003356"/>
<path d="M164.179 22.3471C164.09 22.175 163.955 22.0306 163.79 21.9294C163.625 21.8283 163.435 21.7742 163.241 21.7732C162.855 21.7732 162.546 21.9608 162.546 22.2919C162.546 22.623 163.017 22.7995 163.58 23.0276C164.459 23.3955 165.136 23.7376 165.136 24.6904C165.136 25.5365 164.4 26.2832 163.204 26.2832C162.807 26.294 162.414 26.1972 162.066 26.0029C161.719 25.8086 161.431 25.5242 161.233 25.1796L162.071 24.5101C162.183 24.7171 162.347 24.8909 162.547 25.0136C162.747 25.1364 162.977 25.2039 163.212 25.2091C163.664 25.2091 163.973 25.0067 163.973 24.7124C163.973 24.3041 163.55 24.2085 162.803 23.8811C162.057 23.5537 161.391 23.2189 161.391 22.2956C161.391 21.3722 162.2 20.6953 163.256 20.6953C163.612 20.684 163.966 20.7693 164.278 20.9422C164.59 21.1151 164.849 21.3692 165.029 21.6775L164.179 22.3471Z" fill="#003356"/>
<path d="M173.045 23.4984C173.05 24.0541 172.89 24.5987 172.585 25.0631C172.28 25.5275 171.843 25.8908 171.331 26.1068C170.819 26.3228 170.255 26.3818 169.709 26.2763C169.164 26.1708 168.662 25.9055 168.267 25.5141C167.873 25.1228 167.604 24.623 167.494 24.0783C167.384 23.5336 167.439 22.9686 167.65 22.4549C167.862 21.9413 168.222 21.5022 168.684 21.1935C169.146 20.8848 169.69 20.7203 170.245 20.721C170.613 20.7121 170.98 20.7776 171.322 20.9137C171.664 21.0498 171.975 21.2537 172.237 21.5131C172.498 21.7725 172.705 22.0821 172.844 22.4233C172.982 22.7644 173.051 23.1301 173.045 23.4984ZM168.63 23.4984C168.644 23.8121 168.749 24.115 168.934 24.3693C169.118 24.6236 169.373 24.8183 169.666 24.9291C169.96 25.04 170.28 25.0622 170.586 24.9929C170.893 24.9237 171.172 24.766 171.389 24.5395C171.607 24.3131 171.753 24.0277 171.81 23.7189C171.867 23.41 171.832 23.0913 171.709 22.8022C171.587 22.5131 171.382 22.2664 171.12 22.0926C170.859 21.9188 170.552 21.8256 170.238 21.8246C170.022 21.8259 169.808 21.8707 169.61 21.9562C169.412 22.0417 169.232 22.1663 169.083 22.3224C168.934 22.4786 168.817 22.6631 168.741 22.8652C168.664 23.0672 168.629 23.2826 168.638 23.4984H168.63Z" fill="#003356"/>
<path d="M173.928 20.813H174.91L177.386 24.1863V20.813H178.548V26.1949H177.566L175.105 22.7848V26.1949H173.928V20.813Z" fill="#003356"/>
<path d="M181.609 20.8129H183.639C183.885 20.8018 184.13 20.8406 184.359 20.9269C184.589 21.0131 184.799 21.1451 184.977 21.3147C185.154 21.4844 185.296 21.6883 185.392 21.914C185.489 22.1398 185.538 22.3828 185.538 22.6283C185.538 22.8738 185.489 23.1168 185.392 23.3426C185.296 23.5683 185.154 23.7722 184.977 23.9419C184.799 24.1115 184.589 24.2435 184.359 24.3297C184.13 24.416 183.885 24.4548 183.639 24.4437H182.756V26.1948H181.601L181.609 20.8129ZM183.481 23.4394C183.59 23.4405 183.698 23.4196 183.799 23.378C183.9 23.3364 183.991 23.2751 184.067 23.1975C184.144 23.12 184.204 23.0278 184.244 22.9266C184.284 22.8253 184.304 22.717 184.301 22.6081C184.303 22.5023 184.282 22.3975 184.242 22.2999C184.201 22.2022 184.141 22.1138 184.066 22.0399C183.99 21.966 183.9 21.9082 183.802 21.8699C183.703 21.8316 183.598 21.8137 183.492 21.8172H182.775V23.4394H183.481Z" fill="#003356"/>
<path d="M189.783 20.813V21.8246H187.414V22.9797H189.36V23.9914H187.414V25.1759H189.875V26.1875H186.251V20.813H189.783Z" fill="#003356"/>
<path d="M195.83 23.4984C195.836 24.0549 195.677 24.6006 195.372 25.0661C195.066 25.5316 194.63 25.896 194.117 26.1128C193.605 26.3297 193.039 26.3893 192.493 26.284C191.946 26.1788 191.444 25.9134 191.048 25.5217C190.653 25.13 190.383 24.6296 190.273 24.0841C190.162 23.5386 190.217 22.9726 190.429 22.4581C190.641 21.9435 191.001 21.5037 191.464 21.1944C191.927 20.8851 192.471 20.7203 193.027 20.721C193.396 20.7121 193.762 20.7776 194.105 20.9137C194.447 21.0497 194.758 21.2536 195.02 21.5129C195.282 21.7723 195.489 22.0818 195.628 22.423C195.767 22.7642 195.836 23.13 195.83 23.4984ZM191.416 23.4984C191.43 23.8121 191.535 24.115 191.719 24.3693C191.904 24.6236 192.158 24.8183 192.452 24.9291C192.746 25.04 193.066 25.0622 193.372 24.9929C193.678 24.9237 193.958 24.766 194.175 24.5395C194.393 24.3131 194.539 24.0277 194.596 23.7189C194.653 23.41 194.618 23.0913 194.495 22.8022C194.372 22.5131 194.168 22.2664 193.906 22.0926C193.644 21.9188 193.338 21.8256 193.024 21.8246C192.807 21.8255 192.593 21.8698 192.394 21.9551C192.196 22.0404 192.016 22.1649 191.866 22.3211C191.717 22.4773 191.6 22.662 191.523 22.8643C191.447 23.0666 191.411 23.2822 191.42 23.4984H191.416Z" fill="#003356"/>
<path d="M196.71 20.8129H198.74C198.986 20.8018 199.23 20.8406 199.46 20.9269C199.69 21.0131 199.9 21.1451 200.078 21.3147C200.255 21.4844 200.396 21.6883 200.493 21.914C200.589 22.1398 200.639 22.3828 200.639 22.6283C200.639 22.8738 200.589 23.1168 200.493 23.3426C200.396 23.5683 200.255 23.7722 200.078 23.9419C199.9 24.1115 199.69 24.2435 199.46 24.3297C199.23 24.416 198.986 24.4548 198.74 24.4437H197.857V26.1948H196.702L196.71 20.8129ZM198.582 23.4394C198.689 23.438 198.796 23.4153 198.894 23.3727C198.993 23.33 199.082 23.2683 199.156 23.191C199.231 23.1136 199.289 23.0223 199.329 22.9223C199.368 22.8222 199.386 22.7154 199.384 22.6081C199.385 22.5023 199.365 22.3975 199.324 22.2999C199.284 22.2022 199.224 22.1138 199.148 22.0399C199.073 21.966 198.983 21.9082 198.884 21.8699C198.786 21.8316 198.68 21.8137 198.575 21.8172H197.839V23.4394H198.582Z" fill="#003356"/>
<path d="M201.352 20.813H202.515V25.1759H204.689V26.1949H201.352V20.813Z" fill="#003356"/>
<path d="M208.901 20.813V21.8246H206.528V22.9797H208.478V23.9914H206.528V25.1759H208.989V26.1875H205.365V20.813H208.901Z" fill="#003356"/>
</g>
<defs>
<clipPath id="clip0_0_336">
<rect width="215" height="26.4864" fill="white" transform="translate(0 0.756836)"/>
</clipPath>
</defs>
</svg>
