<svg width="24" height="25" viewBox="0 0 24 25" fill="none" xmlns="http://www.w3.org/2000/svg">
<path d="M20.9728 7.38928C20.5084 8.0088 19.947 8.54921 19.3103 8.98964C19.3103 9.15147 19.3103 9.3133 19.3103 9.48413C19.3154 12.423 18.1415 15.241 16.0518 17.3064C13.962 19.3718 11.1312 20.5118 8.19405 20.4708C6.49599 20.4765 4.81967 20.0888 3.29642 19.338C3.21428 19.3021 3.16131 19.2209 3.16162 19.1312V19.0323C3.16162 18.9032 3.26623 18.7986 3.39527 18.7986C5.06442 18.7435 6.67402 18.1648 7.99634 17.1443C6.48553 17.1138 5.12619 16.2188 4.5006 14.8426C4.46901 14.7675 4.47884 14.6812 4.52657 14.6151C4.57429 14.549 4.653 14.5126 4.73425 14.519C5.19342 14.5651 5.65718 14.5224 6.1002 14.3931C4.43239 14.0469 3.17921 12.6623 2.99986 10.9676C2.99349 10.8863 3.02992 10.8076 3.096 10.7598C3.16207 10.7121 3.24824 10.7022 3.32338 10.7339C3.77094 10.9314 4.25409 11.0354 4.74324 11.0395C3.28184 10.0803 2.65061 8.25593 3.20655 6.5981C3.26394 6.43701 3.40181 6.318 3.5695 6.28482C3.73718 6.25163 3.90996 6.30916 4.02432 6.43627C5.99639 8.53513 8.70604 9.78584 11.5819 9.92467C11.5083 9.63073 11.4721 9.32864 11.4741 9.0256C11.501 7.4366 12.4842 6.02109 13.9634 5.44175C15.4425 4.86242 17.1249 5.23391 18.223 6.38232C18.9714 6.23973 19.695 5.98833 20.3707 5.63609C20.4202 5.60519 20.483 5.60519 20.5325 5.63609C20.5634 5.68561 20.5634 5.7484 20.5325 5.79792C20.2052 6.5474 19.6523 7.176 18.9509 7.59607C19.5651 7.52484 20.1685 7.37995 20.7482 7.16452C20.797 7.1313 20.8611 7.1313 20.9099 7.16452C20.9508 7.18322 20.9814 7.21899 20.9935 7.2623C21.0056 7.30561 20.998 7.35206 20.9728 7.38928Z" fill="#001829"/>
</svg>
