<svg width="24" height="25" viewBox="0 0 24 25" fill="none" xmlns="http://www.w3.org/2000/svg">
<path d="M16.5 6.67188H13.5C12.9477 6.67188 12.5 7.1196 12.5 7.67188V10.6719H16.5C16.6137 10.6694 16.7216 10.7223 16.7892 10.8138C16.8568 10.9053 16.8758 11.0239 16.84 11.1319L16.1 13.3319C16.0318 13.5338 15.8431 13.6703 15.63 13.6719H12.5V21.1719C12.5 21.448 12.2761 21.6719 12 21.6719H9.5C9.22386 21.6719 9 21.448 9 21.1719V13.6719H7.5C7.22386 13.6719 7 13.448 7 13.1719V11.1719C7 10.8958 7.22386 10.6719 7.5 10.6719H9V7.67188C9 5.46273 10.7909 3.67188 13 3.67188H16.5C16.7761 3.67188 17 3.89573 17 4.17188V6.17188C17 6.44801 16.7761 6.67188 16.5 6.67188Z" fill="#001829"/>
</svg>
