<svg width="24" height="25" viewBox="0 0 24 25" fill="none" xmlns="http://www.w3.org/2000/svg">
<path fill-rule="evenodd" clip-rule="evenodd" d="M5 3.67188H19C20.1046 3.67188 21 4.5673 21 5.67188V19.6719C21 20.7765 20.1046 21.6719 19 21.6719H5C3.89543 21.6719 3 20.7765 3 19.6719V5.67188C3 4.5673 3.89543 3.67188 5 3.67188ZM8 18.6719C8.27614 18.6719 8.5 18.448 8.5 18.1719V11.1719C8.5 10.8958 8.27614 10.6719 8 10.6719H6.5C6.22386 10.6719 6 10.8958 6 11.1719V18.1719C6 18.448 6.22386 18.6719 6.5 18.6719H8ZM7.25 9.67188C6.42157 9.67188 5.75 9.00031 5.75 8.17188C5.75 7.34345 6.42157 6.67188 7.25 6.67188C8.07843 6.67188 8.75 7.34345 8.75 8.17188C8.75 9.00031 8.07843 9.67188 7.25 9.67188ZM17.5 18.6719C17.7761 18.6719 18 18.448 18 18.1719V13.5719C18.0325 11.9827 16.8576 10.6264 15.28 10.4319C14.177 10.3311 13.1083 10.8463 12.5 11.7719V11.1719C12.5 10.8958 12.2761 10.6719 12 10.6719H10.5C10.2239 10.6719 10 10.8958 10 11.1719V18.1719C10 18.448 10.2239 18.6719 10.5 18.6719H12C12.2761 18.6719 12.5 18.448 12.5 18.1719V14.4219C12.5 13.5935 13.1716 12.9219 14 12.9219C14.8284 12.9219 15.5 13.5935 15.5 14.4219V18.1719C15.5 18.448 15.7239 18.6719 16 18.6719H17.5Z" fill="#001829"/>
</svg>
