<svg width="24" height="25" viewBox="0 0 24 25" fill="none" xmlns="http://www.w3.org/2000/svg">
<path fill-rule="evenodd" clip-rule="evenodd" d="M16 3.67188H8C5.23858 3.67188 3 5.91045 3 8.67188V16.6719C3 19.4333 5.23858 21.6719 8 21.6719H16C18.7614 21.6719 21 19.4333 21 16.6719V8.67188C21 5.91045 18.7614 3.67188 16 3.67188ZM19.25 16.6719C19.2445 18.4645 17.7926 19.9164 16 19.9219H8C6.20735 19.9164 4.75549 18.4645 4.75 16.6719V8.67188C4.75549 6.87923 6.20735 5.42736 8 5.42188H16C17.7926 5.42736 19.2445 6.87923 19.25 8.67188V16.6719ZM16.75 8.92188C17.3023 8.92188 17.75 8.47415 17.75 7.92188C17.75 7.3696 17.3023 6.92188 16.75 6.92188C16.1977 6.92188 15.75 7.3696 15.75 7.92188C15.75 8.47415 16.1977 8.92188 16.75 8.92188ZM12 8.17188C9.51472 8.17188 7.5 10.1866 7.5 12.6719C7.5 15.1572 9.51472 17.1719 12 17.1719C14.4853 17.1719 16.5 15.1572 16.5 12.6719C16.5027 11.4776 16.0294 10.3314 15.1849 9.48695C14.3404 8.64246 13.1943 8.16922 12 8.17188ZM9.25 12.6719C9.25 14.1907 10.4812 15.4219 12 15.4219C13.5188 15.4219 14.75 14.1907 14.75 12.6719C14.75 11.1531 13.5188 9.92188 12 9.92188C10.4812 9.92188 9.25 11.1531 9.25 12.6719Z" fill="#001829"/>
</svg>
