<svg width="110" height="92" viewBox="0 0 110 92" fill="none" xmlns="http://www.w3.org/2000/svg">
<path fill-rule="evenodd" clip-rule="evenodd" d="M29.7553 0.571301C30.6459 0.571301 31.5165 0.793469 32.257 1.20976C32.9975 1.62603 33.5747 2.21777 33.9155 2.91002C34.2563 3.60228 34.3455 4.36396 34.1717 5.09884C33.998 5.83374 33.5691 6.50883 32.9394 7.03865C32.3096 7.56848 31.5073 7.92935 30.6338 8.07553C29.7603 8.22171 28.8549 8.14662 28.0321 7.85988C27.2093 7.57313 26.5061 7.08758 26.0113 6.46457C25.5165 5.84155 25.2524 5.10907 25.2524 4.35977C25.2517 3.8621 25.3677 3.36918 25.5938 2.90928C25.8198 2.4494 26.1515 2.03152 26.5698 1.67962C26.988 1.32771 27.4847 1.04867 28.0313 0.858487C28.578 0.668302 29.1638 0.570737 29.7553 0.571301ZM55.0026 0.571298C55.8932 0.571297 56.7638 0.793465 57.5043 1.20976C58.2448 1.62603 58.8219 2.21777 59.1627 2.91001C59.5035 3.60227 59.5927 4.36396 59.419 5.09884C59.2452 5.83373 58.8163 6.50883 58.1866 7.03864C57.5569 7.56847 56.7545 7.92934 55.881 8.07552C55.0076 8.2217 54.1022 8.14662 53.2794 7.85987C52.4566 7.57313 51.7533 7.08758 51.2585 6.46456C50.7637 5.84155 50.4996 5.10906 50.4996 4.35977C50.499 3.8621 50.615 3.36918 50.841 2.90928C51.0671 2.4494 51.3987 2.03152 51.817 1.67962C52.2353 1.32771 52.7319 1.04867 53.2786 0.858484C53.8252 0.668298 54.411 0.570733 55.0026 0.571298ZM80.2498 0.571294C81.1404 0.571294 82.011 0.793461 82.7515 1.20975C83.492 1.62603 84.0692 2.21776 84.41 2.91001C84.7508 3.60227 84.84 4.36396 84.6662 5.09884C84.4925 5.83373 84.0636 6.50882 83.4339 7.03864C82.8041 7.56847 82.0018 7.92934 81.1283 8.07552C80.2548 8.2217 79.3494 8.14661 78.5266 7.85987C77.7038 7.57313 77.0006 7.08758 76.5058 6.46456C76.011 5.84154 75.7469 5.10906 75.7469 4.35976C75.7469 3.355 76.2213 2.39135 77.0658 1.68087C77.9102 0.970388 79.0556 0.571294 80.2498 0.571294ZM29.7553 21.8128C30.6459 21.8128 31.5165 22.0349 32.257 22.4512C32.9975 22.8675 33.5747 23.4592 33.9155 24.1515C34.2563 24.8437 34.3455 25.6054 34.1717 26.3403C33.998 27.0752 33.5691 27.7503 32.9394 28.2801C32.3096 28.8099 31.5073 29.1707 30.6338 29.3169C29.7603 29.463 28.8549 29.3881 28.0321 29.1013C27.2093 28.8146 26.5061 28.329 26.0113 27.706C25.5165 27.083 25.2524 26.3505 25.2524 25.6012C25.2517 25.1036 25.3677 24.6106 25.5938 24.1508C25.8198 23.6909 26.1515 23.273 26.5698 22.9211C26.988 22.5692 27.4847 22.2901 28.0313 22.1C28.578 21.9098 29.1638 21.8122 29.7553 21.8128ZM55.0026 21.8128C55.8932 21.8128 56.7638 22.0349 57.5043 22.4512C58.2448 22.8675 58.8219 23.4592 59.1627 24.1515C59.5035 24.8437 59.5927 25.6054 59.419 26.3403C59.2452 27.0752 58.8164 27.7503 58.1866 28.2801C57.5569 28.8099 56.7545 29.1707 55.881 29.3169C55.0076 29.463 54.1022 29.3881 53.2794 29.1013C52.4566 28.8146 51.7533 28.329 51.2585 27.706C50.7637 27.083 50.4996 26.3505 50.4996 25.6012C50.499 25.1036 50.615 24.6106 50.841 24.1508C51.0671 23.6909 51.3987 23.273 51.817 22.9211C52.2353 22.5692 52.732 22.2901 53.2786 22.1C53.8252 21.9098 54.411 21.8122 55.0026 21.8128ZM80.2498 21.8127C81.1404 21.8127 82.011 22.0349 82.7515 22.4512C83.492 22.8675 84.0692 23.4592 84.41 24.1515C84.7508 24.8437 84.84 25.6054 84.6662 26.3403C84.4925 27.0752 84.0636 27.7503 83.4339 28.2801C82.8041 28.8099 82.0018 29.1707 81.1283 29.3169C80.2548 29.463 79.3494 29.3881 78.5266 29.1013C77.7038 28.8146 77.0006 28.329 76.5058 27.706C76.011 27.083 75.7469 26.3505 75.7469 25.6012C75.7469 24.5965 76.2213 23.6328 77.0658 22.9223C77.9102 22.2119 79.0556 21.8127 80.2498 21.8127ZM29.7553 43.0542C30.6459 43.0542 31.5165 43.2764 32.257 43.6927C32.9975 44.109 33.5747 44.7006 33.9155 45.3928C34.2563 46.0851 34.3455 46.8469 34.1717 47.5818C33.998 48.3167 33.5691 48.9917 32.9394 49.5215C32.3096 50.0513 31.5073 50.4122 30.6338 50.5583C29.7603 50.7045 28.8549 50.6295 28.0321 50.3428C27.2093 50.0561 26.5061 49.5704 26.0113 48.9474C25.5165 48.3244 25.2524 47.592 25.2524 46.8427C25.2517 46.345 25.3677 45.8521 25.5938 45.3922C25.8198 44.9323 26.1515 44.5144 26.5698 44.1625C26.988 43.8106 27.4847 43.5316 28.0313 43.3414C28.578 43.1512 29.1638 43.0537 29.7553 43.0542ZM55.0026 43.0542C55.8932 43.0542 56.7638 43.2764 57.5043 43.6927C58.2448 44.109 58.8219 44.7006 59.1627 45.3928C59.5035 46.0851 59.5927 46.8469 59.419 47.5818C59.2452 48.3167 58.8164 48.9916 58.1866 49.5215C57.5569 50.0513 56.7545 50.4122 55.881 50.5583C55.0076 50.7045 54.1022 50.6295 53.2794 50.3428C52.4566 50.0561 51.7533 49.5704 51.2585 48.9474C50.7637 48.3244 50.4996 47.592 50.4996 46.8427C50.501 45.8383 50.9759 44.8753 51.82 44.1651C52.6642 43.4549 53.8087 43.0554 55.0026 43.0542ZM80.2498 43.0542C81.1404 43.0542 82.011 43.2764 82.7515 43.6927C83.492 44.109 84.0692 44.7006 84.41 45.3928C84.7508 46.0851 84.84 46.8469 84.6662 47.5818C84.4925 48.3167 84.0636 48.9916 83.4339 49.5215C82.8041 50.0513 82.0018 50.4122 81.1283 50.5583C80.2548 50.7045 79.3494 50.6295 78.5266 50.3428C77.7038 50.0561 77.0006 49.5704 76.5058 48.9474C76.011 48.3244 75.7469 47.592 75.7469 46.8427C75.7469 45.8379 76.2213 44.8743 77.0658 44.1638C77.9102 43.4533 79.0556 43.0542 80.2498 43.0542ZM29.7553 64.2956C30.6459 64.2956 31.5165 64.5179 32.257 64.9341C32.9975 65.3504 33.5747 65.9421 33.9155 66.6343C34.2563 67.3266 34.3455 68.0883 34.1717 68.8232C33.998 69.5581 33.5691 70.2331 32.9394 70.7629C32.3096 71.2928 31.5073 71.6536 30.6338 71.7998C29.7603 71.946 28.8549 71.8709 28.0321 71.5842C27.2093 71.2974 26.5061 70.8119 26.0113 70.1889C25.5165 69.5658 25.2524 68.8333 25.2524 68.084C25.2517 67.5864 25.3677 67.0936 25.5938 66.6337C25.8198 66.1738 26.1515 65.7559 26.5698 65.404C26.988 65.0521 27.4847 64.7731 28.0313 64.5829C28.578 64.3927 29.1638 64.295 29.7553 64.2956ZM55.0026 64.2956C55.8932 64.2956 56.7638 64.5179 57.5043 64.9341C58.2448 65.3504 58.8219 65.9421 59.1627 66.6343C59.5035 67.3266 59.5927 68.0883 59.419 68.8232C59.2452 69.5581 58.8164 70.2331 58.1866 70.7629C57.5569 71.2928 56.7545 71.6536 55.881 71.7998C55.0076 71.946 54.1022 71.8709 53.2794 71.5842C52.4566 71.2974 51.7533 70.8119 51.2585 70.1889C50.7637 69.5658 50.4996 68.8333 50.4996 68.084C50.4996 67.0793 50.9741 66.1157 51.8185 65.4053C52.663 64.6948 53.8083 64.2956 55.0026 64.2956ZM80.2498 64.2956C81.1404 64.2956 82.011 64.5179 82.7515 64.9341C83.492 65.3504 84.0692 65.9421 84.41 66.6343C84.7508 67.3266 84.84 68.0883 84.6662 68.8232C84.4925 69.5581 84.0636 70.2331 83.4339 70.7629C82.8041 71.2928 82.0018 71.6536 81.1283 71.7998C80.2548 71.946 79.3494 71.8709 78.5266 71.5842C77.7038 71.2974 77.0006 70.8119 76.5058 70.1888C76.011 69.5658 75.7469 68.8333 75.7469 68.084C75.7483 67.0796 76.2231 66.1168 77.0673 65.4065C77.9114 64.6963 79.056 64.2967 80.2498 64.2956ZM29.7553 85.537C30.6459 85.537 31.5165 85.7592 32.257 86.1755C32.9975 86.5918 33.5747 87.1835 33.9155 87.8758C34.2563 88.568 34.3455 89.3297 34.1717 90.0646C33.998 90.7995 33.5691 91.4746 32.9394 92.0044C32.3096 92.5342 31.5073 92.8951 30.6338 93.0413C29.7603 93.1874 28.8549 93.1124 28.0321 92.8256C27.2093 92.5389 26.5061 92.0533 26.0113 91.4303C25.5165 90.8073 25.2524 90.0748 25.2524 89.3255C25.2524 88.3208 25.7268 87.3572 26.5713 86.6467C27.4157 85.9363 28.5611 85.537 29.7553 85.537ZM55.0026 85.537C55.8932 85.537 56.7638 85.7592 57.5043 86.1755C58.2448 86.5918 58.8219 87.1835 59.1627 87.8758C59.5035 88.568 59.5927 89.3297 59.419 90.0646C59.2452 90.7995 58.8164 91.4746 58.1866 92.0044C57.5569 92.5342 56.7545 92.8951 55.881 93.0413C55.0076 93.1874 54.1022 93.1124 53.2794 92.8256C52.4566 92.5389 51.7533 92.0533 51.2585 91.4303C50.7637 90.8073 50.4997 90.0748 50.4997 89.3255C50.499 88.8278 50.615 88.3349 50.841 87.875C51.0671 87.4151 51.3987 86.9974 51.817 86.6455C52.2353 86.2936 52.732 86.0144 53.2786 85.8242C53.8252 85.634 54.411 85.5365 55.0026 85.537ZM80.2498 85.537C81.1404 85.537 82.011 85.7592 82.7515 86.1755C83.492 86.5918 84.0692 87.1835 84.41 87.8758C84.7508 88.568 84.84 89.3297 84.6662 90.0646C84.4925 90.7995 84.0636 91.4746 83.4339 92.0044C82.8041 92.5342 82.0018 92.8951 81.1283 93.0412C80.2548 93.1874 79.3494 93.1124 78.5266 92.8256C77.7038 92.5389 77.0006 92.0533 76.5058 91.4303C76.011 90.8073 75.7469 90.0748 75.7469 89.3255C75.7469 88.3207 76.2213 87.3572 77.0658 86.6467C77.9102 85.9363 79.0556 85.537 80.2498 85.537ZM29.7553 106.779C30.6459 106.779 31.5165 107.001 32.257 107.417C32.9975 107.833 33.5747 108.425 33.9155 109.117C34.2563 109.809 34.3455 110.571 34.1717 111.306C33.998 112.041 33.5691 112.716 32.9394 113.246C32.3096 113.776 31.5073 114.136 30.6338 114.283C29.7603 114.429 28.8549 114.354 28.0321 114.067C27.2093 113.78 26.5061 113.295 26.0113 112.672C25.5165 112.049 25.2524 111.316 25.2524 110.567C25.2517 110.069 25.3677 109.576 25.5938 109.116C25.8198 108.657 26.1515 108.239 26.5698 107.887C26.988 107.535 27.4847 107.256 28.0313 107.066C28.578 106.876 29.1638 106.778 29.7553 106.779ZM55.0026 106.778C55.8932 106.778 56.7638 107.001 57.5043 107.417C58.2448 107.833 58.8219 108.425 59.1627 109.117C59.5035 109.809 59.5927 110.571 59.419 111.306C59.2452 112.041 58.8164 112.716 58.1866 113.246C57.5569 113.776 56.7545 114.136 55.881 114.283C55.0076 114.429 54.1022 114.354 53.2794 114.067C52.4566 113.78 51.7533 113.295 51.2585 112.672C50.7637 112.049 50.4997 111.316 50.4997 110.567C50.501 109.563 50.9759 108.6 51.82 107.889C52.6642 107.179 53.8087 106.78 55.0026 106.778ZM80.2498 106.778C81.1404 106.778 82.011 107.001 82.7515 107.417C83.492 107.833 84.0692 108.425 84.41 109.117C84.7508 109.809 84.84 110.571 84.6662 111.306C84.4925 112.041 84.0636 112.716 83.4339 113.246C82.8041 113.776 82.0018 114.136 81.1283 114.283C80.2548 114.429 79.3494 114.354 78.5266 114.067C77.7038 113.78 77.0006 113.295 76.5058 112.672C76.011 112.049 75.7469 111.316 75.7469 110.567C75.7469 109.562 76.2213 108.599 77.0658 107.888C77.9102 107.178 79.0556 106.778 80.2498 106.778ZM105.497 0.57129C106.388 0.57129 107.258 0.793457 107.999 1.20975C108.739 1.62602 109.316 2.21776 109.657 2.91C109.998 3.60226 110.087 4.36395 109.913 5.09883C109.74 5.83373 109.311 6.50882 108.681 7.03864C108.051 7.56847 107.249 7.92934 106.376 8.07552C105.502 8.2217 104.597 8.14661 103.774 7.85986C102.951 7.57312 102.248 7.08757 101.753 6.46456C101.258 5.84154 100.994 5.10906 100.994 4.35976C100.994 3.355 101.469 2.39134 102.313 1.68086C103.157 0.970384 104.303 0.57129 105.497 0.57129ZM105.497 21.8127C106.388 21.8127 107.258 22.0349 107.999 22.4512C108.739 22.8675 109.316 23.4592 109.657 24.1515C109.998 24.8437 110.087 25.6054 109.913 26.3403C109.74 27.0752 109.311 27.7503 108.681 28.2801C108.051 28.8099 107.249 29.1707 106.376 29.3168C105.502 29.463 104.597 29.3881 103.774 29.1013C102.951 28.8146 102.248 28.329 101.753 27.706C101.258 27.083 100.994 26.3505 100.994 25.6012C100.994 24.5965 101.469 23.6328 102.313 22.9223C103.157 22.2119 104.303 21.8127 105.497 21.8127ZM105.497 43.0542C106.388 43.0542 107.258 43.2764 107.999 43.6927C108.739 44.1089 109.316 44.7006 109.657 45.3928C109.998 46.0851 110.087 46.8469 109.913 47.5818C109.74 48.3167 109.311 48.9916 108.681 49.5215C108.051 50.0513 107.249 50.4122 106.376 50.5583C105.502 50.7045 104.597 50.6295 103.774 50.3428C102.951 50.056 102.248 49.5704 101.753 48.9474C101.258 48.3244 100.994 47.592 100.994 46.8427C100.994 45.8379 101.469 44.8743 102.313 44.1638C103.157 43.4533 104.303 43.0542 105.497 43.0542ZM105.497 64.2956C106.388 64.2956 107.258 64.5179 107.999 64.9341C108.739 65.3504 109.316 65.942 109.657 66.6343C109.998 67.3266 110.087 68.0883 109.913 68.8232C109.74 69.5581 109.311 70.2331 108.681 70.7629C108.051 71.2928 107.249 71.6536 106.376 71.7998C105.502 71.946 104.597 71.8709 103.774 71.5842C102.951 71.2974 102.248 70.8119 101.753 70.1888C101.258 69.5658 100.994 68.8333 100.994 68.084C100.996 67.0796 101.47 66.1167 102.315 65.4065C103.159 64.6963 104.303 64.2967 105.497 64.2956ZM105.497 85.537C106.388 85.537 107.258 85.7592 107.999 86.1755C108.739 86.5918 109.316 87.1835 109.657 87.8758C109.998 88.568 110.087 89.3297 109.913 90.0646C109.74 90.7995 109.311 91.4746 108.681 92.0044C108.051 92.5342 107.249 92.8951 106.376 93.0412C105.502 93.1874 104.597 93.1124 103.774 92.8256C102.951 92.5389 102.248 92.0533 101.753 91.4303C101.258 90.8073 100.994 90.0748 100.994 89.3255C100.994 88.3207 101.469 87.3572 102.313 86.6467C103.157 85.9362 104.303 85.537 105.497 85.537ZM29.7553 128.02C30.6459 128.02 31.5165 128.242 32.257 128.658C32.9975 129.075 33.5747 129.666 33.9155 130.359C34.2563 131.051 34.3455 131.813 34.1717 132.548C33.998 133.282 33.5691 133.957 32.9394 134.487C32.3096 135.017 31.5073 135.378 30.6338 135.524C29.7603 135.67 28.8549 135.595 28.0321 135.309C27.2093 135.022 26.5061 134.536 26.0113 133.913C25.5165 133.29 25.2524 132.558 25.2524 131.808C25.2517 131.311 25.3677 130.818 25.5938 130.358C25.8198 129.898 26.1515 129.48 26.5698 129.128C26.988 128.776 27.4847 128.497 28.0313 128.307C28.578 128.117 29.1638 128.019 29.7553 128.02ZM55.0026 128.02C55.8932 128.02 56.7638 128.242 57.5043 128.658C58.2448 129.075 58.8219 129.666 59.1627 130.359C59.5035 131.051 59.5927 131.813 59.419 132.548C59.2452 133.282 58.8164 133.957 58.1866 134.487C57.5569 135.017 56.7545 135.378 55.881 135.524C55.0076 135.67 54.1022 135.595 53.2794 135.309C52.4566 135.022 51.7533 134.536 51.2585 133.913C50.7637 133.29 50.4997 132.558 50.4997 131.808C50.499 131.311 50.615 130.818 50.841 130.358C51.0671 129.898 51.3987 129.48 51.817 129.128C52.2353 128.776 52.732 128.497 53.2786 128.307C53.8252 128.117 54.4111 128.019 55.0026 128.02ZM80.2498 128.02C81.1404 128.02 82.011 128.242 82.7515 128.658C83.492 129.075 84.0692 129.666 84.41 130.359C84.7508 131.051 84.84 131.813 84.6662 132.548C84.4925 133.282 84.0636 133.957 83.4339 134.487C82.8041 135.017 82.0018 135.378 81.1283 135.524C80.2548 135.67 79.3494 135.595 78.5266 135.309C77.7038 135.022 77.0006 134.536 76.5058 133.913C76.011 133.29 75.7469 132.558 75.7469 131.808C75.7469 130.804 76.2213 129.84 77.0658 129.13C77.9102 128.419 79.0556 128.02 80.2498 128.02ZM29.7553 149.261C30.6459 149.261 31.5165 149.484 32.257 149.9C32.9975 150.316 33.5747 150.908 33.9155 151.6C34.2563 152.292 34.3455 153.054 34.1717 153.789C33.998 154.524 33.5691 155.199 32.9394 155.729C32.3096 156.259 31.5073 156.619 30.6338 156.766C29.7603 156.912 28.8549 156.837 28.0321 156.55C27.2093 156.263 26.5061 155.778 26.0113 155.155C25.5165 154.532 25.2524 153.799 25.2524 153.05C25.2517 152.552 25.3677 152.059 25.5938 151.599C25.8198 151.14 26.1515 150.722 26.5698 150.37C26.988 150.018 27.4847 149.739 28.0313 149.549C28.578 149.358 29.1638 149.261 29.7553 149.261ZM55.0026 149.261C55.8932 149.261 56.7638 149.484 57.5043 149.9C58.2448 150.316 58.8219 150.908 59.1627 151.6C59.5035 152.292 59.5927 153.054 59.419 153.789C59.2452 154.524 58.8164 155.199 58.1866 155.729C57.5569 156.259 56.7545 156.619 55.8811 156.766C55.0076 156.912 54.1022 156.837 53.2794 156.55C52.4566 156.263 51.7533 155.778 51.2585 155.155C50.7637 154.532 50.4997 153.799 50.4997 153.05C50.501 152.045 50.9759 151.083 51.82 150.372C52.6642 149.662 53.8087 149.263 55.0026 149.261ZM80.2498 149.261C81.1404 149.261 82.011 149.484 82.7515 149.9C83.492 150.316 84.0692 150.908 84.41 151.6C84.7508 152.292 84.84 153.054 84.6662 153.789C84.4925 154.524 84.0636 155.199 83.4339 155.729C82.8041 156.259 82.0018 156.619 81.1283 156.766C80.2548 156.912 79.3494 156.837 78.5266 156.55C77.7038 156.263 77.0006 155.778 76.5058 155.155C76.011 154.532 75.7469 153.799 75.7469 153.05C75.7496 152.046 76.2249 151.084 77.0688 150.374C77.9127 149.664 79.0564 149.264 80.2498 149.261ZM29.7553 170.503C30.6459 170.503 31.5165 170.725 32.257 171.141C32.9975 171.558 33.5747 172.149 33.9155 172.842C34.2563 173.534 34.3455 174.296 34.1717 175.03C33.998 175.765 33.5691 176.44 32.9394 176.97C32.3096 177.5 31.5073 177.861 30.6338 178.007C29.7603 178.153 28.8549 178.078 28.0321 177.791C27.2093 177.505 26.5061 177.019 26.0113 176.396C25.5165 175.773 25.2524 175.041 25.2524 174.291C25.2517 173.794 25.3677 173.301 25.5938 172.841C25.8198 172.381 26.1515 171.963 26.5698 171.611C26.988 171.259 27.4847 170.98 28.0313 170.79C28.578 170.6 29.1638 170.502 29.7553 170.503ZM55.0026 170.503C55.8932 170.503 56.7638 170.725 57.5043 171.141C58.2448 171.558 58.8219 172.149 59.1627 172.842C59.5035 173.534 59.5927 174.296 59.419 175.03C59.2452 175.765 58.8164 176.44 58.1866 176.97C57.5569 177.5 56.7545 177.861 55.8811 178.007C55.0076 178.153 54.1022 178.078 53.2794 177.791C52.4566 177.505 51.7533 177.019 51.2585 176.396C50.7637 175.773 50.4997 175.041 50.4997 174.291C50.4997 173.287 50.9741 172.323 51.8185 171.612C52.663 170.902 53.8083 170.503 55.0026 170.503ZM80.2498 170.503C81.1404 170.503 82.011 170.725 82.7515 171.141C83.492 171.558 84.0692 172.149 84.41 172.842C84.7508 173.534 84.84 174.296 84.6662 175.03C84.4925 175.765 84.0636 176.44 83.4339 176.97C82.8041 177.5 82.0018 177.861 81.1283 178.007C80.2548 178.153 79.3494 178.078 78.5266 177.791C77.7038 177.505 77.0006 177.019 76.5058 176.396C76.011 175.773 75.7469 175.041 75.7469 174.291C75.7483 173.287 76.2231 172.324 77.0673 171.614C77.9114 170.904 79.056 170.504 80.2498 170.503ZM29.7553 191.749C30.6459 191.749 31.5165 191.971 32.257 192.387C32.9975 192.803 33.5747 193.395 33.9155 194.087C34.2563 194.78 34.3455 195.541 34.1717 196.276C33.998 197.011 33.5691 197.686 32.9394 198.216C32.3096 198.746 31.5073 199.107 30.6338 199.253C29.7603 199.399 28.8549 199.324 28.0321 199.037C27.2093 198.75 26.5061 198.265 26.0113 197.642C25.5165 197.019 25.2524 196.286 25.2524 195.537C25.2551 194.533 25.7304 193.571 26.5743 192.861C27.4182 192.151 28.5619 191.751 29.7553 191.749ZM55.0026 191.749C55.8934 191.749 56.7642 191.971 57.5048 192.387C58.2454 192.804 58.8226 193.396 59.1632 194.088C59.5039 194.781 59.5928 195.543 59.4186 196.278C59.2444 197.013 58.8151 197.688 58.1848 198.217C57.5545 198.747 56.7517 199.108 55.8779 199.253C55.0041 199.399 54.0985 199.323 53.2758 199.036C52.4531 198.748 51.7502 198.262 51.256 197.639C50.7619 197.015 50.4986 196.282 50.4997 195.533C50.4997 195.035 50.6162 194.543 50.8425 194.084C51.0689 193.624 51.4006 193.207 51.8188 192.855C52.237 192.504 52.7335 192.225 53.2798 192.035C53.8261 191.845 54.4115 191.748 55.0026 191.749ZM80.2498 191.749C81.1404 191.749 82.011 191.971 82.7515 192.387C83.492 192.803 84.0692 193.395 84.41 194.087C84.7508 194.78 84.84 195.541 84.6662 196.276C84.4925 197.011 84.0636 197.686 83.4339 198.216C82.8041 198.746 82.0018 199.107 81.1283 199.253C80.2548 199.399 79.3494 199.324 78.5266 199.037C77.7038 198.75 77.0006 198.265 76.5058 197.642C76.011 197.019 75.7469 196.286 75.7469 195.537C75.7469 194.532 76.2213 193.569 77.0658 192.858C77.9102 192.148 79.0556 191.749 80.2498 191.749ZM29.7553 212.994C30.6461 212.994 31.5169 213.217 32.2576 213.633C32.9982 214.05 33.5753 214.642 33.916 215.334C34.2566 216.027 34.3455 216.789 34.1713 217.524C33.9972 218.259 33.5678 218.934 32.9375 219.463C32.3073 219.993 31.5045 220.353 30.6306 220.499C29.7568 220.645 28.8513 220.569 28.0286 220.282C27.2058 219.994 26.5029 219.508 26.0088 218.884C25.5146 218.261 25.2514 217.528 25.2524 216.779C25.2517 216.281 25.3677 215.788 25.5938 215.328C25.8198 214.868 26.1515 214.45 26.5698 214.098C26.988 213.746 27.4847 213.467 28.0313 213.277C28.578 213.087 29.1638 212.989 29.7553 212.99L29.7553 212.994ZM55.0026 212.994C55.8932 212.994 56.7638 213.217 57.5043 213.633C58.2448 214.049 58.8219 214.641 59.1627 215.333C59.5035 216.025 59.5927 216.787 59.419 217.522C59.2452 218.257 58.8164 218.932 58.1866 219.462C57.5569 219.992 56.7545 220.352 55.8811 220.498C55.0076 220.645 54.1022 220.57 53.2794 220.283C52.4566 219.996 51.7533 219.511 51.2585 218.888C50.7637 218.265 50.4997 217.532 50.4997 216.783C50.4963 216.283 50.6102 215.788 50.8348 215.325C51.0595 214.862 51.3904 214.442 51.8088 214.087C52.2271 213.732 52.7246 213.45 53.2726 213.258C53.8207 213.065 54.4086 212.965 55.0026 212.964L55.0026 212.994ZM80.2498 212.994C81.1406 212.994 82.0114 213.217 82.7521 213.633C83.4927 214.05 84.0698 214.642 84.4105 215.334C84.7511 216.027 84.84 216.789 84.6658 217.524C84.4917 218.259 84.0623 218.934 83.4321 219.463C82.8018 219.993 81.999 220.353 81.1251 220.499C80.2513 220.645 79.3458 220.569 78.5231 220.282C77.7004 219.994 76.9974 219.508 76.5033 218.884C76.0091 218.261 75.7459 217.528 75.7469 216.779C75.7469 215.774 76.2213 214.81 77.0658 214.1C77.9102 213.389 79.0556 212.99 80.2498 212.99L80.2498 212.994ZM105.497 128.024C106.388 128.024 107.258 128.246 107.999 128.663C108.739 129.079 109.316 129.671 109.657 130.363C109.998 131.055 110.087 131.817 109.913 132.552C109.74 133.287 109.311 133.962 108.681 134.492C108.051 135.021 107.249 135.382 106.376 135.528C105.502 135.675 104.597 135.6 103.774 135.313C102.951 135.026 102.248 134.54 101.753 133.917C101.258 133.294 100.994 132.562 100.994 131.813C100.993 131.315 101.109 130.822 101.335 130.362C101.561 129.902 101.893 129.483 102.311 129.131C102.729 128.779 103.226 128.499 103.773 128.309C104.319 128.118 104.905 128.02 105.497 128.02L105.497 128.024ZM105.497 149.266C106.388 149.266 107.258 149.488 107.999 149.904C108.739 150.32 109.316 150.912 109.657 151.604C109.998 152.297 110.087 153.058 109.913 153.793C109.74 154.528 109.311 155.203 108.681 155.733C108.051 156.263 107.249 156.624 106.376 156.77C105.502 156.916 104.597 156.841 103.774 156.554C102.951 156.267 102.248 155.782 101.753 155.159C101.258 154.536 100.994 153.803 100.994 153.054C100.993 152.556 101.109 152.063 101.335 151.603C101.561 151.143 101.893 150.725 102.311 150.372C102.729 150.02 103.226 149.741 103.773 149.55C104.319 149.36 104.905 149.261 105.497 149.261L105.497 149.266ZM105.497 170.507C106.388 170.507 107.258 170.729 107.999 171.146C108.739 171.562 109.316 172.154 109.657 172.846C109.998 173.538 110.087 174.3 109.913 175.035C109.74 175.77 109.311 176.445 108.681 176.974C108.051 177.504 107.249 177.865 106.376 178.011C105.502 178.157 104.597 178.082 103.774 177.796C102.951 177.509 102.248 177.023 101.753 176.4C101.258 175.777 100.994 175.045 100.994 174.296C100.994 173.29 101.468 172.326 102.313 171.615C103.157 170.904 104.302 170.504 105.497 170.503L105.497 170.507ZM105.497 191.749C106.388 191.749 107.258 191.971 107.999 192.387C108.739 192.803 109.316 193.395 109.657 194.087C109.998 194.779 110.087 195.541 109.913 196.276C109.74 197.011 109.311 197.686 108.681 198.216C108.051 198.746 107.249 199.107 106.376 199.253C105.502 199.399 104.597 199.324 103.774 199.037C102.951 198.75 102.248 198.265 101.753 197.642C101.258 197.019 100.994 196.286 100.994 195.537C100.997 194.533 101.472 193.571 102.316 192.861C103.16 192.151 104.304 191.751 105.497 191.749ZM105.497 212.994C106.388 212.994 107.259 213.217 107.999 213.633C108.74 214.05 109.317 214.642 109.658 215.334C109.998 216.027 110.087 216.789 109.913 217.524C109.739 218.259 109.31 218.934 108.679 219.463C108.049 219.993 107.246 220.353 106.372 220.499C105.499 220.645 104.593 220.569 103.77 220.282C102.948 219.994 102.245 219.508 101.751 218.884C101.256 218.261 100.993 217.528 100.994 216.779C100.994 215.774 101.469 214.81 102.313 214.1C103.157 213.389 104.303 212.99 105.497 212.99L105.497 212.994ZM4.50293 0.575639C5.39373 0.574784 6.26484 0.796204 7.00601 1.21198C7.74719 1.62773 8.32514 2.21912 8.66674 2.91129C9.00834 3.60347 9.09826 4.36537 8.92509 5.10054C8.75193 5.83572 8.32348 6.51114 7.69394 7.04141C7.0644 7.57167 6.26204 7.93291 5.38842 8.07944C4.51481 8.22597 3.60916 8.15125 2.78605 7.86464C1.96296 7.57802 1.25939 7.09242 0.764371 6.46933C0.269353 5.84622 0.00514684 5.11357 0.00514681 4.36411C0.00446777 3.86659 0.120259 3.3739 0.345929 2.91405C0.571599 2.45419 0.902714 2.03615 1.32037 1.68396C1.73803 1.33176 2.23405 1.05228 2.78012 0.86136C3.32618 0.670442 3.91159 0.57187 4.50293 0.571305L4.50293 0.575639ZM4.50293 21.8171C5.39374 21.8162 6.26484 22.0377 7.00601 22.4534C7.74719 22.8692 8.32514 23.4606 8.66675 24.1528C9.00834 24.8449 9.09826 25.6068 8.92509 26.342C8.75193 27.0772 8.32348 27.7526 7.69394 28.2829C7.0644 28.8131 6.26205 29.1744 5.38843 29.3209C4.51481 29.4674 3.60916 29.3927 2.78605 29.1061C1.96296 28.8195 1.25939 28.3339 0.764372 27.7108C0.269354 27.0877 0.00514789 26.355 0.00514785 25.6056C0.00446881 25.1081 0.12026 24.6153 0.34593 24.1554C0.5716 23.6955 0.902715 23.2776 1.32037 22.9254C1.73803 22.5732 2.23405 22.2937 2.78012 22.1028C3.32618 21.9119 3.9116 21.8133 4.50293 21.8128L4.50293 21.8171ZM4.50293 43.0586C5.39374 43.0577 6.26484 43.2791 7.00601 43.6949C7.74719 44.1107 8.32514 44.702 8.66675 45.3942C9.00835 46.0864 9.09826 46.8483 8.92509 47.5835C8.75193 48.3187 8.32348 48.9941 7.69394 49.5243C7.0644 50.0546 6.26205 50.4158 5.38843 50.5623C4.51481 50.7089 3.60916 50.6341 2.78606 50.3475C1.96296 50.0609 1.25939 49.5754 0.764373 48.9523C0.269355 48.3292 0.00514894 47.5965 0.0051489 46.847C0.00446986 46.3495 0.120261 45.8567 0.345931 45.3969C0.571601 44.937 0.902717 44.5191 1.32037 44.1669C1.73803 43.8147 2.23405 43.5352 2.78012 43.3443C3.32618 43.1534 3.9116 43.0548 4.50293 43.0542L4.50293 43.0586ZM4.50293 64.2999C5.39374 64.2991 6.26484 64.5206 7.00601 64.9364C7.74719 65.3521 8.32514 65.9435 8.66675 66.6357C9.00835 67.3279 9.09826 68.0897 8.92509 68.8248C8.75193 69.56 8.32348 70.2355 7.69394 70.7658C7.0644 71.2961 6.26205 71.6573 5.38843 71.8038C4.51481 71.9503 3.60916 71.8755 2.78606 71.5889C1.96296 71.3023 1.25939 70.8167 0.764374 70.1936C0.269356 69.5705 0.00514999 68.8379 0.00514995 68.0884C0.00447091 67.5909 0.120262 67.0982 0.345932 66.6383C0.571602 66.1785 0.902718 65.7605 1.32037 65.4083C1.73803 65.0561 2.23405 64.7766 2.78012 64.5856C3.32618 64.3947 3.9116 64.2962 4.50293 64.2956L4.50293 64.2999ZM4.50293 85.5414C5.39353 85.5414 6.26411 85.7636 7.00461 86.1798C7.74511 86.5961 8.32227 87.1879 8.66309 87.8801C9.0039 88.5724 9.09307 89.334 8.91933 90.0689C8.74558 90.8038 8.31671 91.4789 7.68696 92.0087C7.05721 92.5386 6.25488 92.8994 5.38139 93.0456C4.50791 93.1918 3.60253 93.1167 2.77973 92.83C1.95693 92.5432 1.25367 92.0577 0.758882 91.4346C0.2641 90.8116 1.19347e-06 90.0791 1.15652e-06 89.3299C-0.000670255 88.832 0.115297 88.3389 0.341287 87.8787C0.567277 87.4186 0.898843 87.0005 1.31705 86.6482C1.73525 86.296 2.23189 86.0165 2.77854 85.8258C3.3252 85.6352 3.91116 85.537 4.50293 85.537L4.50293 85.5414ZM4.50293 106.783C5.39374 106.782 6.26484 107.003 7.00601 107.419C7.74719 107.835 8.32514 108.426 8.66675 109.119C9.00835 109.811 9.09826 110.573 8.9251 111.308C8.75193 112.043 8.32348 112.718 7.69394 113.249C7.0644 113.779 6.26205 114.14 5.38843 114.287C4.51481 114.433 3.60916 114.358 2.78606 114.072C1.96296 113.785 1.25939 113.3 0.764376 112.677C0.269358 112.053 0.00515208 111.321 0.00515205 110.571C0.004473 110.074 0.120264 109.581 0.345934 109.121C0.571604 108.661 0.90272 108.243 1.32038 107.891C1.73803 107.539 2.23406 107.259 2.78012 107.069C3.32618 106.878 3.9116 106.779 4.50293 106.779L4.50293 106.783ZM4.50293 128.024C5.39374 128.023 6.26484 128.245 7.00602 128.661C7.7472 129.076 8.32515 129.668 8.66675 130.36C9.00835 131.052 9.09826 131.814 8.9251 132.549C8.75193 133.284 8.32348 133.96 7.69394 134.49C7.0644 135.02 6.26205 135.382 5.38843 135.528C4.51481 135.675 3.60916 135.6 2.78606 135.313C1.96296 135.027 1.2594 134.541 0.764377 133.918C0.269359 133.295 0.00515313 132.562 0.00515309 131.813C0.00447405 131.315 0.120265 130.822 0.345935 130.363C0.571605 129.903 0.902721 129.485 1.32038 129.133C1.73803 128.78 2.23406 128.501 2.78012 128.31C3.32618 128.119 3.9116 128.021 4.50293 128.02L4.50293 128.024ZM4.50293 149.266C5.39374 149.265 6.26484 149.486 7.00602 149.902C7.7472 150.318 8.32515 150.909 8.66675 151.601C9.00835 152.294 9.09826 153.055 8.9251 153.791C8.75193 154.526 8.32348 155.201 7.69394 155.732C7.0644 156.262 6.26205 156.623 5.38843 156.77C4.51481 156.916 3.60917 156.841 2.78606 156.555C1.96296 156.268 1.2594 155.782 0.764378 155.159C0.26936 154.536 0.00515418 153.804 0.00515414 153.054C0.00515409 152.05 0.478688 151.086 1.32189 150.375C2.16509 149.664 3.3091 149.264 4.50293 149.261L4.50293 149.266ZM4.50293 170.507C5.39374 170.506 6.26484 170.728 7.00602 171.143C7.7472 171.559 8.32515 172.151 8.66675 172.843C9.00835 173.535 9.09826 174.297 8.9251 175.032C8.75194 175.767 8.32348 176.443 7.69394 176.973C7.06441 177.503 6.26205 177.864 5.38843 178.011C4.51481 178.158 3.60917 178.083 2.78606 177.796C1.96296 177.51 1.2594 177.024 0.764379 176.401C0.269361 175.778 0.00515523 175.045 0.00515519 174.296C0.00447615 173.798 0.120267 173.305 0.345937 172.845C0.571607 172.386 0.902723 171.968 1.32038 171.616C1.73803 171.263 2.23406 170.984 2.78013 170.793C3.32618 170.602 3.9116 170.503 4.50293 170.503L4.50293 170.507ZM4.50294 191.749C5.39353 191.749 6.26411 191.971 7.00461 192.387C7.74512 192.803 8.32227 193.395 8.66309 194.087C9.0039 194.78 9.09308 195.541 8.91933 196.276C8.74559 197.011 8.31671 197.686 7.68696 198.216C7.05722 198.746 6.25488 199.107 5.3814 199.253C4.50792 199.399 3.60254 199.324 2.77974 199.037C1.95694 198.75 1.25368 198.265 0.758887 197.642C0.264106 197.019 6.43165e-06 196.286 6.3947e-06 195.537C6.34514e-06 194.532 0.474417 193.569 1.31888 192.858C2.16334 192.148 3.30868 191.749 4.50294 191.749ZM4.50294 212.994C5.39397 212.993 6.26526 213.215 7.00655 213.631C7.74784 214.047 8.32579 214.639 8.66724 215.331C9.0087 216.023 9.0983 216.786 8.92472 217.521C8.75114 218.256 8.32217 218.932 7.69212 219.462C7.06206 219.992 6.25924 220.353 5.38528 220.499C4.51131 220.645 3.60551 220.569 2.78249 220.282C1.95948 219.995 1.25629 219.509 0.761887 218.885C0.267494 218.261 0.00414261 217.528 0.00515728 216.779C0.00447824 216.281 0.120323 215.789 0.346054 215.329C0.571785 214.869 0.902977 214.452 1.3207 214.1C1.73843 213.748 2.2345 213.469 2.78052 213.278C3.32656 213.088 3.91185 212.99 4.50294 212.99L4.50294 212.994ZM105.497 106.778C106.388 106.778 107.258 107.001 107.999 107.417C108.739 107.833 109.316 108.425 109.657 109.117C109.998 109.809 110.087 110.571 109.913 111.306C109.74 112.041 109.311 112.716 108.681 113.246C108.051 113.776 107.249 114.136 106.376 114.283C105.502 114.429 104.597 114.354 103.774 114.067C102.951 113.78 102.248 113.295 101.753 112.672C101.258 112.049 100.994 111.316 100.994 110.567C100.994 109.562 101.469 108.599 102.313 107.888C103.157 107.178 104.303 106.778 105.497 106.778Z" fill="url(#paint0_linear_0_1564)"/>
<defs>
<linearGradient id="paint0_linear_0_1564" x1="110" y1="110.571" x2="2.61394e-06" y2="110.571" gradientUnits="userSpaceOnUse">
<stop stop-color="#043B62"/>
<stop offset="1" stop-color="#007FD6"/>
</linearGradient>
</defs>
</svg>
