<svg width="1440" height="2386" viewBox="0 0 1440 2386" fill="none" xmlns="http://www.w3.org/2000/svg">
<g clip-path="url(#clip0_0_1524)">
<path fill-rule="evenodd" clip-rule="evenodd" d="M-133 690.37L-133 1581.37L-8 1684.5C102.5 1649.5 292.201 1276.38 125.029 1301.55C-20.162 1323.41 9.2341 1225.14 34.3819 1096.46C68.9905 919.372 80.5005 716.384 -133 690.37Z" fill="#EDF7F3"/>
<path fill-rule="evenodd" clip-rule="evenodd" d="M-121 749.371L-121 1581.37L-4.49994 1691C72.5492 1606.2 229.705 1273.76 76.447 1299.86C-77.9113 1326.15 -23.3506 1210.21 -2.47147 1069.35C18.1513 930.228 4.94927 766.432 -121 749.371Z" fill="#F7931E"/>
<path fill-rule="evenodd" clip-rule="evenodd" d="M-133 1000.37L-133 1548.37L0.00012207 1589.5C74.5823 1538.28 139.128 1344.21 14.4054 1362.96C-214.643 1397.37 56.2412 1022.98 -133 1000.37Z" fill="#FBE5CC"/>
<path d="M133.069 1009.02L133.069 1012.7L180.056 1012.7L180.056 1009.02L133.069 1009.02Z" fill="#FBE5CC"/>
<path d="M154.789 986.523L154.789 1035.19L158.336 1035.19L158.336 986.523L154.789 986.523Z" fill="#FBE5CC"/>
<path fill-rule="evenodd" clip-rule="evenodd" d="M507.431 191.283C507.43 185.889 508.973 180.616 511.865 176.131C514.758 171.645 518.869 168.149 523.679 166.085C528.49 164.02 533.783 163.479 538.891 164.531C543.998 165.583 548.689 168.18 552.371 171.993C556.054 175.807 558.561 180.666 559.578 185.956C560.594 191.246 560.073 196.73 558.08 201.713C556.088 206.696 552.713 210.955 548.384 213.952C544.054 216.949 538.964 218.548 533.757 218.548C526.776 218.548 520.08 215.676 515.143 210.563C510.206 205.45 507.432 198.514 507.431 191.283Z" fill="#003356"/>
<path fill-rule="evenodd" clip-rule="evenodd" d="M94.9249 477.644C94.9249 472.221 96.476 466.921 99.382 462.412C102.288 457.904 106.418 454.39 111.251 452.315C116.083 450.239 121.401 449.697 126.531 450.754C131.661 451.812 136.373 454.423 140.072 458.258C143.77 462.092 146.289 466.977 147.31 472.295C148.33 477.613 147.806 483.126 145.805 488.135C143.803 493.145 140.413 497.427 136.064 500.439C131.715 503.452 126.602 505.06 121.371 505.06C114.357 505.06 107.631 502.171 102.671 497.03C97.7112 491.888 94.9249 484.915 94.9249 477.644Z" fill="#F7931E"/>
</g>
<defs>
<clipPath id="clip0_0_1524">
<rect width="2619.58" height="1580.34" fill="white" transform="translate(-576.969 901.955) rotate(-20.1261)"/>
</clipPath>
</defs>
</svg>
