<svg width="1440" height="666" viewBox="0 0 1440 666" fill="none" xmlns="http://www.w3.org/2000/svg">
<path fill-rule="evenodd" clip-rule="evenodd" d="M827.429 -430H-673V255.388C-497.982 381.653 -159.406 312.553 -201.79 20.6105C-238.599 -232.944 -73.1103 -181.608 143.584 -137.691C441.794 -77.2524 783.623 -57.1516 827.429 -430Z" fill="#EDF7F3"/>
<path fill-rule="evenodd" clip-rule="evenodd" d="M496.197 -430H-673V62.4585C-553.838 189.488 -240.716 148.199 -277.401 -104.474C-314.346 -358.961 -151.416 -269.008 46.5423 -234.585C242.042 -200.585 472.221 -222.35 496.197 -430Z" fill="#F7931E"/>
<path fill-rule="evenodd" clip-rule="evenodd" d="M131.193 -430H-673V-104.269C-597.83 9.01608 -373.4 -16.6581 -400.902 -206.102C-451.413 -554.009 98.0092 -142.556 131.193 -430Z" fill="#FBE5CC"/>
<path d="M22.0505 -57.1516H17.0839V8.69923H22.0505V-57.1516Z" fill="#FBE5CC"/>
<path fill-rule="evenodd" clip-rule="evenodd" d="M1127.49 467.505C1134.78 467.504 1141.91 469.667 1147.97 473.72C1154.03 477.774 1158.76 483.536 1161.55 490.278C1164.34 497.019 1165.07 504.438 1163.65 511.595C1162.23 518.753 1158.72 525.328 1153.56 530.488C1148.41 535.649 1141.84 539.164 1134.69 540.588C1127.54 542.012 1120.13 541.282 1113.39 538.489C1106.65 535.697 1100.89 530.968 1096.84 524.9C1092.79 518.833 1090.63 511.699 1090.63 504.401C1090.63 494.617 1094.51 485.233 1101.43 478.314C1108.34 471.395 1117.71 467.507 1127.49 467.505Z" fill="#003356"/>
<path d="M664.909 541H661.806V582.157H664.909V541Z" fill="#003356"/>
<path d="M683.92 560.024H642.798V563.133H683.92V560.024Z" fill="#003356"/>
</svg>
