<svg width="1440" height="596" viewBox="0 0 1440 596" fill="none" xmlns="http://www.w3.org/2000/svg">
<g clip-path="url(#clip0_0_400)">
<path fill-rule="evenodd" clip-rule="evenodd" d="M844.397 -373.973L-288.786 -512.576L-347.207 -34.9384C-246.785 102.394 61.5898 99.4669 56.01 -149.95C50.3927 -401.158 197.633 -294.597 385.41 -237.743C570.854 -181.591 796.525 -175.415 844.397 -373.973Z" fill="#F7931E"/>
<path fill-rule="evenodd" clip-rule="evenodd" d="M172.932 1264.05L2339.19 1529.01L2460.31 538.753C2229.91 325.414 1728.91 365.434 1738.51 794.75C1746.85 1167.59 1524.98 998.913 1219.89 897.188C800.013 757.22 302.067 733.088 172.932 1264.05Z" fill="#D5EBFA"/>
<path fill-rule="evenodd" clip-rule="evenodd" d="M664.94 1335.31L2433.15 1551.59L2532.01 743.292C2343.97 569.155 1935 601.818 1942.84 952.247C1949.65 1256.58 1762.04 1172.18 1513 1089.15C1170.28 974.887 770.349 901.913 664.941 1335.3" fill="#003356"/>
<path fill-rule="evenodd" clip-rule="evenodd" d="M1115.02 -2.49277L-334.783 -179.822L-415.846 482.921C-261.667 625.699 73.6573 598.897 67.2319 311.591C61.6535 62.0628 215.486 131.261 419.675 199.338C700.673 293.024 1028.59 352.86 1115.02 -2.49277Z" fill="#D5EBFA"/>
</g>
<defs>
<clipPath id="clip0_0_400">
<rect width="2526" height="1581" fill="white" transform="translate(-212.684 -533.491) rotate(6.97339)"/>
</clipPath>
</defs>
</svg>
